<?xml version="1.0" encoding="UTF-8"?>
<svg id="Layer_2" data-name="Layer 2" xmlns="http://www.w3.org/2000/svg" viewBox="0 0 4400 1100">
  <defs>
    <style>
      .cls-1 {
        fill: #256c93;
      }

      .cls-2 {
        fill: #003d64;
      }

      .cls-3 {
        fill: #ffb66e;
      }

      .cls-4 {
        fill: #a4c2d3;
      }

      .cls-5 {
        fill: #f9f1e0;
      }
    </style>
  </defs>
  <g id="Layer_1-2" data-name="Layer 1">
    <g>
      <polygon class="cls-4" points="4400 1100 0 1100 0 0 4400 0 4400 1100 4400 1100"/>
      <g id="blue_heart_things" data-name="blue heart things">
        <path class="cls-2" d="M8.35,873.28s18.05,8.38,27.7,10.91c35.32,9.27,70.94,20.81,106.71,26.39,38.9,6.06,78.51,11.97,118.13,10.72,39.92-1.26,79.11-9.18,117.69-19.17,42.45-10.99,81.7-33.1,113.54-63.31,13.53-12.84,27.46-27.59,33.73-45.52,25.78-73.71-38.78-149.53-107.32-155.12-89.32-7.29-175.73,38.48-248.84,87.24-41.42,27.63-84.09,53.81-124.1,84.92-14.52,11.29-32.45,25.05-45.57,38.42v19.75c1.69,1.01,3.54,1.95,4.66,2.74,2.65,1.87,6.24,3.23,3.68,2.03h0Z"/>
        <path class="cls-2" d="M32.64,777.03l13.35-8.26c28.78-17.79,55.95-34.6,86.06-51.9,29.11-16.74,56.39-34.41,83.35-54.01,25.02-18.16,46.21-35.1,64.77-51.76,39.87-35.83,80.31-75.66,106.06-124.19,40.91-77.1,44.46-190.21-29.57-248-9.45-7.36-19.44-13.33-29.72-17.73-70.36-30.13-140.41,2.13-205.62,41.48-19.12,11.53-40.23,28.24-55.66,40.41-4.69,3.73-10.05,8.88-15.7,14.35-14.49,14.01-33.45,32.3-49.51,32.89-.15,0-.31-.02-.46-.03v438.72h1.17c12.26,0,22.46-6.34,31.47-11.97h0Z"/>
        <path class="cls-2" d="M4355.27,810.35c-40.01-31.11-82.67-57.29-124.1-84.92-73.12-48.77-159.52-94.53-248.84-87.24-68.54,5.59-133.1,81.41-107.32,155.12,6.27,17.93,20.19,32.68,33.73,45.52,31.84,30.2,71.08,52.32,113.54,63.31,38.58,9.99,77.77,17.91,117.69,19.17,39.62,1.25,79.22-4.65,118.13-10.72,35.77-5.58,71.38-17.12,106.71-26.39,9.65-2.53,27.69-10.91,27.69-10.91-2.56,1.2,1.03-.17,3.68-2.03.94-.66,2.39-1.42,3.82-2.24v-21.11c-13.04-13.1-30.52-26.5-44.73-37.55h0Z"/>
        <path class="cls-2" d="M4350.96,317.43c-5.66-5.46-11-10.61-15.71-14.35-15.43-12.18-36.54-28.88-55.64-40.41-65.23-39.35-135.28-71.61-205.64-41.48-10.28,4.4-20.27,10.36-29.71,17.73-74.04,57.79-70.49,170.9-29.58,248,25.76,48.53,66.2,88.36,106.07,124.19,18.56,16.66,39.75,33.59,64.77,51.76,26.98,19.6,54.24,37.27,83.37,54.01,30.1,17.31,57.27,34.12,86.05,51.9l13.34,8.26c9.01,5.63,19.21,11.97,31.47,11.97h.25v-438.72c-15.96-.91-34.67-18.97-49.04-32.85h0Z"/>
        <path class="cls-2" d="M682.33,638.18c89.32-7.29,175.73,38.48,248.84,87.24,41.43,27.63,84.09,53.81,124.1,84.92,15.19,11.8,34.11,26.3,47.35,40.24,3.57,3.76,5.07,11.36,1.38,15.58-1.61,1.84-5.85,3.7-7.82,5.08-2.65,1.87-6.24,3.23-3.68,2.03,0,0-18.04,8.38-27.69,10.91-35.33,9.27-70.94,20.81-106.71,26.39-38.9,6.06-78.51,11.97-118.13,10.72-39.92-1.26-79.11-9.18-117.69-19.17-42.45-10.99-81.7-33.1-113.54-63.31-13.53-12.84-27.46-27.59-33.73-45.52-25.78-73.71,38.79-149.53,107.32-155.12h0Z"/>
        <path class="cls-2" d="M1486.24,486.91c-25.76,48.53-66.19,88.36-106.06,124.19-18.56,16.66-39.75,33.6-64.78,51.76-26.96,19.6-54.24,37.27-83.35,54.01-30.11,17.31-57.29,34.12-86.06,51.9l-13.35,8.26c-9.01,5.63-19.21,11.97-31.47,11.97h-1.42c-12.26,0-22.46-6.34-31.47-11.97l-13.34-8.26c-28.78-17.79-55.95-34.6-86.04-51.9-29.13-16.74-56.39-34.41-83.38-54.01-25.02-18.16-46.21-35.1-64.77-51.76-39.87-35.83-80.31-75.66-106.06-124.19-40.92-77.1-44.46-190.21,29.57-248,9.45-7.36,19.44-13.33,29.72-17.73,70.36-30.13,140.41,2.13,205.64,41.48,19.1,11.53,40.21,28.24,55.64,40.41,4.71,3.73,10.05,8.88,15.7,14.35,14.52,14.01,33.45,32.3,49.51,32.89,16.06-.58,35.02-18.87,49.51-32.89,5.65-5.46,11.01-10.61,15.7-14.35,15.43-12.18,36.54-28.88,55.66-40.41,65.21-39.35,135.26-71.61,205.62-41.48,10.28,4.4,20.27,10.36,29.72,17.73,74.03,57.79,70.48,170.9,29.57,248h0Z"/>
        <path class="cls-2" d="M1782.33,638.18c89.32-7.29,175.73,38.48,248.84,87.24,41.43,27.63,84.09,53.81,124.1,84.92,15.19,11.8,34.11,26.3,47.35,40.24,3.57,3.76,5.07,11.36,1.38,15.58-1.61,1.84-5.85,3.7-7.82,5.08-2.65,1.87-6.24,3.23-3.68,2.03,0,0-18.04,8.38-27.69,10.91-35.33,9.27-70.94,20.81-106.71,26.39-38.91,6.06-78.51,11.97-118.13,10.72-39.92-1.26-79.11-9.18-117.7-19.17-42.45-10.99-81.69-33.1-113.53-63.31-13.54-12.84-27.46-27.59-33.73-45.52-25.78-73.71,38.78-149.53,107.32-155.12h0Z"/>
        <path class="cls-2" d="M2586.24,486.91c-25.76,48.53-66.19,88.36-106.06,124.19-18.56,16.66-39.75,33.6-64.78,51.76-26.96,19.6-54.24,37.27-83.35,54.01-30.11,17.31-57.29,34.12-86.06,51.9l-13.35,8.26c-9.01,5.63-19.21,11.97-31.47,11.97h-1.42c-12.26,0-22.46-6.34-31.47-11.97l-13.34-8.26c-28.78-17.79-55.95-34.6-86.05-51.9-29.13-16.74-56.38-34.41-83.37-54.01-25.02-18.16-46.21-35.1-64.77-51.76-39.87-35.83-80.31-75.66-106.07-124.19-40.91-77.1-44.46-190.21,29.58-248,9.44-7.36,19.43-13.33,29.71-17.73,70.36-30.13,140.41,2.13,205.64,41.48,19.11,11.53,40.21,28.24,55.64,40.41,4.71,3.73,10.05,8.88,15.7,14.35,14.52,14.01,33.45,32.3,49.51,32.89,16.06-.58,35.02-18.87,49.51-32.89,5.65-5.46,11.01-10.61,15.7-14.35,15.43-12.18,36.54-28.88,55.66-40.41,65.21-39.35,135.26-71.61,205.62-41.48,10.28,4.4,20.27,10.36,29.72,17.73,74.03,57.79,70.48,170.9,29.57,248h0Z"/>
        <path class="cls-2" d="M2882.33,638.18c89.32-7.29,175.73,38.48,248.84,87.24,41.43,27.63,84.09,53.81,124.1,84.92,15.19,11.8,34.11,26.3,47.35,40.24,3.57,3.76,5.07,11.36,1.38,15.58-1.61,1.84-5.85,3.7-7.82,5.08-2.65,1.87-6.24,3.23-3.68,2.03,0,0-18.04,8.38-27.69,10.91-35.33,9.27-70.94,20.81-106.72,26.39-38.9,6.06-78.5,11.97-118.12,10.72-39.92-1.26-79.11-9.18-117.69-19.17-42.46-10.99-81.7-33.1-113.54-63.31-13.54-12.84-27.46-27.59-33.73-45.52-25.78-73.71,38.78-149.53,107.32-155.12h0Z"/>
        <path class="cls-2" d="M3686.24,486.91c-25.76,48.53-66.19,88.36-106.06,124.19-18.56,16.66-39.75,33.6-64.78,51.76-26.96,19.6-54.24,37.27-83.35,54.01-30.11,17.31-57.29,34.12-86.06,51.9l-13.35,8.26c-9.01,5.63-19.21,11.97-31.47,11.97h-1.42c-12.26,0-22.46-6.34-31.47-11.97l-13.34-8.26c-28.78-17.79-55.95-34.6-86.05-51.9-29.13-16.74-56.39-34.41-83.37-54.01-25.02-18.16-46.21-35.1-64.77-51.76-39.87-35.83-80.31-75.66-106.07-124.19-40.91-77.1-44.46-190.21,29.58-248,9.44-7.36,19.43-13.33,29.71-17.73,70.36-30.13,140.41,2.13,205.64,41.48,19.11,11.53,40.21,28.24,55.64,40.41,4.71,3.73,10.05,8.88,15.7,14.35,14.52,14.01,33.45,32.3,49.51,32.89,16.06-.58,35.02-18.87,49.51-32.89,5.65-5.46,11.01-10.61,15.7-14.35,15.43-12.18,36.54-28.88,55.66-40.41,65.21-39.35,135.26-71.61,205.62-41.48,10.28,4.4,20.27,10.36,29.72,17.73,74.03,57.79,70.48,170.9,29.57,248h0Z"/>
        <g id="antennas">
          <path class="cls-2" d="M3.19,379.61c.37-.3.63-.69.81-1.15.39.15.8.25,1.22.25.71,0,1.42-.17,2-.34,1.19-.35,6.16-2.27,6.9-4.57.92-2.46,1.27-5.11,1.61-7.68.24-1.84.47-3.58.89-5.21,3.73-14.14,7.99-28.9,15.55-40.52,9.13-14.03,20.49-31.49,34.68-40.01,1.39-.82,2.64-.59,4.74-.12,1.24.28,2.66.61,4.19.55,6.04-.2,12.95-3.42,16.79-7.82,0,0,0,0,0,0,4.43-5.08,6.35-12.13,5.29-19.33-1.07-7.26-4.98-13.49-10.73-17.11-5.45-3.42-11.73-3.77-17.69-.96-7.11,3.35-12.38,10.61-13.4,18.49-.45,3.29-.26,6.87.5,9.92.06.41.26.87.7,1.87.15.34.39.89.54,1.29-1.52,2.53-4.99,5.38-8.06,7.91-2.04,1.67-3.96,3.25-5.35,4.73-7.76,8.15-15.17,18.36-21.43,29.52-5.79,10.25-12.22,22.24-15.26,34.86-1.65,6.73-2.68,11.99-3.35,17.03-.03.24-.04.52-.07.78.05-3.11.1-6.23.1-9.3,0-8.75.03-17.5.05-26.24.05-17.21.1-35.01-.05-52.51-.05-9.8-.03-20.29.44-30.54.06-1.36.04-2.8.01-4.26-.05-2.88-.1-5.85.56-8.36.31-.73,3.21-1.66,4.16-1.97.54-.17,1.02-.33,1.38-.47,4.24-1.58,7.36-5.08,9.63-7.97,3.92-5.14,5.89-9.82,6.03-14.31.24-6.54-2.75-13.82-8.01-19.46-4.86-5.22-11.06-8.32-17-8.53-.51-.01-1.03,0-1.55.01v202.1c.4.05.79.08,1.15.08.85,0,1.56-.17,2.04-.66h0Z"/>
          <path class="cls-2" d="M4378.09,188.9c-4.54,5.14-6.44,11.13-5.5,17.31.96,6.56,5.23,13.39,11.39,18.25.75.63,1.86,1.23,3.14,1.94,1.66.92,4.75,2.62,5.01,3.73.8,3.23.77,7.04.75,10.73,0,1.01,0,2.01,0,2.97.1,6.81-.11,13.78-.31,20.52-.1,3.21-.2,6.43-.26,9.66-.3,13.47.2,27.13.68,40.34.27,7.55.56,15.36.69,23.02.11,6.33.24,13.56.44,21.08-.66-4.09-1.57-8.47-2.87-13.77-3.04-12.62-9.47-24.61-15.25-34.86-6.27-11.16-13.68-21.37-21.44-29.52-1.39-1.48-3.31-3.06-5.35-4.73-3.07-2.53-6.54-5.38-8.06-7.91.16-.4.39-.94.55-1.29.43-1,.63-1.45.69-1.87.76-3.06.95-6.64.5-9.92-1.03-7.88-6.29-15.14-13.4-18.49-5.95-2.8-12.24-2.46-17.69.96-5.75,3.62-9.66,9.86-10.73,17.11-1.06,7.21.87,14.25,5.29,19.33h0c3.85,4.4,10.75,7.61,16.79,7.82,1.53.06,2.95-.27,4.19-.55,2.1-.47,3.35-.7,4.74.12,14.19,8.52,25.55,25.98,34.67,40.01,7.56,11.62,11.82,26.39,15.55,40.52.42,1.63.65,3.37.89,5.21.34,2.56.68,5.21,1.61,7.68.73,2.3,5.71,4.22,6.9,4.57.58.17,1.29.34,2,.34.33,0,.67-.04.99-.13.09.1.19.21.31.29l.77.52c.3.2.67.3,1.03.31.27,0,.75.1,1.29.19.67.12,1.31.23,1.91.3v-202.1c-8,.3-16.5,4.21-21.91,10.34h0Z"/>
          <path class="cls-2" d="M1197.86,254.14c-1.07-7.26-4.99-13.49-10.74-17.11-5.45-3.42-11.73-3.77-17.69-.96-7.11,3.35-12.37,10.61-13.39,18.49-.45,3.29-.26,6.87.49,9.92.07.41.26.87.7,1.87.15.34.39.89.54,1.29-1.52,2.53-4.98,5.38-8.06,7.91-2.04,1.67-3.96,3.25-5.35,4.73-7.76,8.15-15.17,18.36-21.43,29.52-5.79,10.25-12.22,22.24-15.26,34.86-1.65,6.73-2.68,11.99-3.35,17.03-.04.24-.05.52-.07.78.05-3.11.11-6.23.11-9.3,0-8.75.02-17.5.05-26.24.05-17.21.1-35.01-.05-52.51-.05-9.8-.04-20.29.43-30.54.06-1.36.04-2.8.01-4.26-.05-2.88-.1-5.85.56-8.36.31-.73,3.21-1.66,4.16-1.97.54-.17,1.02-.33,1.38-.47,4.24-1.58,7.36-5.08,9.62-7.97,3.92-5.14,5.89-9.82,6.04-14.31.24-6.54-2.76-13.82-8.01-19.46-4.86-5.22-11.06-8.32-17-8.53-8.44-.18-17.7,3.83-23.46,10.35-4.54,5.14-6.44,11.13-5.5,17.31.96,6.56,5.23,13.39,11.39,18.25.75.63,1.86,1.23,3.14,1.94,1.66.92,4.75,2.62,5.01,3.73.8,3.23.77,7.04.75,10.73-.01,1.01-.01,2.01,0,2.97.1,6.81-.11,13.78-.31,20.52-.1,3.21-.2,6.43-.26,9.66-.3,13.47.2,27.13.68,40.34.28,7.55.56,15.36.69,23.02.11,6.33.24,13.56.44,21.08-.66-4.09-1.57-8.47-2.87-13.77-3.04-12.62-9.47-24.61-15.25-34.86-6.27-11.16-13.68-21.37-21.44-29.52-1.39-1.48-3.31-3.06-5.35-4.73-3.07-2.53-6.54-5.38-8.06-7.91.16-.4.39-.94.55-1.29.43-1,.63-1.46.69-1.87.76-3.06.95-6.64.5-9.92-1.03-7.88-6.29-15.14-13.4-18.49-5.95-2.8-12.23-2.46-17.69.96-5.75,3.62-9.66,9.86-10.73,17.11-1.06,7.21.87,14.25,5.29,19.33h0c3.85,4.4,10.75,7.61,16.79,7.82,1.53.06,2.95-.27,4.19-.55,2.1-.47,3.35-.7,4.74.12,14.19,8.52,25.55,25.98,34.67,40.01,7.56,11.62,11.82,26.39,15.55,40.52.42,1.63.65,3.37.89,5.21.34,2.56.68,5.21,1.61,7.68.73,2.3,5.71,4.22,6.9,4.57.58.17,1.29.34,2,.34.33,0,.67-.04.99-.13.09.1.18.21.31.29l.77.52c.3.2.67.3,1.03.31.27,0,.75.1,1.29.19,1.12.2,2.17.38,3.06.38s1.56-.17,2.04-.66c.37-.3.62-.69.81-1.15.39.15.8.25,1.23.25.71,0,1.42-.17,2-.34,1.19-.35,6.16-2.27,6.9-4.57.92-2.46,1.27-5.11,1.6-7.68.24-1.84.47-3.58.89-5.21,3.73-14.14,8-28.9,15.55-40.52,9.13-14.03,20.49-31.49,34.68-40.01,1.39-.82,2.64-.59,4.73-.12,1.24.28,2.66.61,4.19.55,6.04-.2,12.95-3.42,16.79-7.82h0c4.43-5.08,6.36-12.13,5.3-19.33h0Z"/>
          <path class="cls-2" d="M2297.86,254.14c-1.07-7.26-4.99-13.49-10.74-17.11-5.45-3.42-11.73-3.77-17.69-.96-7.11,3.35-12.37,10.61-13.39,18.49-.45,3.29-.26,6.87.49,9.92.07.41.26.87.7,1.87.15.34.39.89.54,1.29-1.52,2.53-4.98,5.38-8.06,7.91-2.04,1.67-3.96,3.25-5.35,4.73-7.76,8.15-15.17,18.36-21.43,29.52-5.79,10.25-12.22,22.24-15.26,34.86-1.65,6.73-2.68,11.99-3.35,17.03-.04.24-.05.52-.07.78.05-3.11.11-6.23.11-9.3,0-8.75.02-17.5.05-26.24.05-17.21.1-35.01-.05-52.51-.06-9.8-.04-20.29.43-30.54.06-1.36.04-2.8.01-4.26-.05-2.88-.1-5.85.56-8.36.31-.73,3.21-1.66,4.16-1.97.54-.17,1.02-.33,1.38-.47,4.24-1.58,7.36-5.08,9.62-7.97,3.92-5.14,5.89-9.82,6.04-14.31.24-6.54-2.76-13.82-8.01-19.46-4.86-5.22-11.06-8.32-17.01-8.53-8.43-.18-17.69,3.83-23.45,10.35-4.54,5.14-6.44,11.13-5.5,17.31.96,6.56,5.23,13.39,11.39,18.25.75.63,1.86,1.23,3.14,1.94,1.66.92,4.75,2.62,5.01,3.73.8,3.23.77,7.04.75,10.73,0,1.01,0,2.01,0,2.97.1,6.81-.11,13.78-.31,20.52-.1,3.21-.2,6.43-.26,9.66-.3,13.47.2,27.13.68,40.34.28,7.55.56,15.36.69,23.02.11,6.33.24,13.56.44,21.08-.66-4.09-1.57-8.47-2.87-13.77-3.04-12.62-9.47-24.61-15.25-34.86-6.27-11.16-13.68-21.37-21.44-29.52-1.39-1.48-3.31-3.06-5.35-4.73-3.07-2.53-6.54-5.38-8.06-7.91.16-.4.39-.94.55-1.29.43-1,.63-1.46.69-1.87.76-3.06.95-6.64.5-9.92-1.03-7.88-6.29-15.14-13.4-18.49-5.95-2.8-12.23-2.46-17.69.96-5.75,3.62-9.66,9.86-10.73,17.11-1.06,7.21.87,14.25,5.29,19.33h0c3.85,4.4,10.75,7.61,16.79,7.82,1.53.06,2.95-.27,4.19-.55,2.1-.47,3.35-.7,4.74.12,14.19,8.52,25.55,25.98,34.67,40.01,7.56,11.62,11.82,26.39,15.55,40.52.42,1.63.65,3.37.89,5.21.34,2.56.68,5.21,1.61,7.68.73,2.3,5.71,4.22,6.9,4.57.58.17,1.29.34,2,.34.33,0,.67-.04.99-.13.09.1.18.21.31.29l.77.52c.3.2.67.3,1.03.31.27,0,.75.1,1.29.19,1.12.2,2.17.38,3.06.38s1.56-.17,2.04-.66c.37-.3.62-.69.81-1.15.39.15.8.25,1.23.25.71,0,1.42-.17,2-.34,1.19-.35,6.16-2.27,6.9-4.57.92-2.46,1.27-5.11,1.6-7.68.24-1.84.47-3.58.89-5.21,3.73-14.14,8-28.9,15.55-40.52,9.13-14.03,20.49-31.49,34.68-40.01,1.39-.82,2.64-.59,4.73-.12,1.24.28,2.66.61,4.19.55,6.04-.2,12.95-3.42,16.79-7.82h0c4.43-5.08,6.36-12.13,5.3-19.33h0Z"/>
          <path class="cls-2" d="M3397.86,254.14c-1.07-7.26-4.99-13.49-10.74-17.11-5.45-3.42-11.73-3.77-17.69-.96-7.11,3.35-12.37,10.61-13.39,18.49-.45,3.29-.26,6.87.49,9.92.07.41.26.87.7,1.87.15.34.39.89.54,1.29-1.52,2.53-4.98,5.38-8.06,7.91-2.04,1.67-3.96,3.25-5.35,4.73-7.76,8.15-15.17,18.36-21.43,29.52-5.79,10.25-12.22,22.24-15.26,34.86-1.65,6.73-2.68,11.99-3.35,17.03-.04.24-.05.52-.07.78.05-3.11.11-6.23.11-9.3,0-8.75.02-17.5.05-26.24.05-17.21.1-35.01-.05-52.51-.06-9.8-.04-20.29.43-30.54.06-1.36.04-2.8.01-4.26-.05-2.88-.1-5.85.56-8.36.31-.73,3.21-1.66,4.16-1.97.54-.17,1.02-.33,1.38-.47,4.24-1.58,7.36-5.08,9.62-7.97,3.92-5.14,5.89-9.82,6.04-14.31.24-6.54-2.76-13.82-8.01-19.46-4.86-5.22-11.06-8.32-17.01-8.53-8.43-.18-17.68,3.83-23.45,10.35-4.54,5.14-6.44,11.13-5.5,17.31.96,6.56,5.23,13.39,11.39,18.25.75.63,1.86,1.23,3.14,1.94,1.66.92,4.75,2.62,5.01,3.73.8,3.23.77,7.04.75,10.73,0,1.01,0,2.01,0,2.97.1,6.81-.11,13.78-.31,20.52-.1,3.21-.2,6.43-.26,9.66-.3,13.47.2,27.13.68,40.34.27,7.55.56,15.36.69,23.02.11,6.33.24,13.56.44,21.08-.66-4.09-1.57-8.47-2.87-13.77-3.04-12.62-9.47-24.61-15.25-34.86-6.27-11.16-13.68-21.37-21.44-29.52-1.39-1.48-3.31-3.06-5.35-4.73-3.07-2.53-6.54-5.38-8.06-7.91.16-.4.39-.94.55-1.29.43-1,.63-1.46.69-1.87.76-3.06.95-6.64.5-9.92-1.03-7.88-6.29-15.14-13.4-18.49-5.95-2.8-12.24-2.46-17.69.96-5.75,3.62-9.66,9.86-10.73,17.11-1.06,7.21.87,14.25,5.29,19.33h0c3.85,4.4,10.75,7.61,16.79,7.82,1.53.06,2.95-.27,4.19-.55,2.1-.47,3.35-.7,4.74.12,14.19,8.52,25.55,25.98,34.67,40.01,7.56,11.62,11.82,26.39,15.55,40.52.42,1.63.65,3.37.89,5.21.34,2.56.68,5.21,1.61,7.68.73,2.3,5.71,4.22,6.9,4.57.58.17,1.29.34,2,.34.33,0,.67-.04.99-.13.09.1.19.21.31.29l.77.52c.3.2.67.3,1.03.31.27,0,.75.1,1.29.19,1.12.2,2.17.38,3.06.38s1.56-.17,2.04-.66c.37-.3.62-.69.81-1.15.39.15.8.25,1.23.25.71,0,1.42-.17,2-.34,1.19-.35,6.16-2.27,6.9-4.57.92-2.46,1.27-5.11,1.6-7.68.24-1.84.47-3.58.89-5.21,3.73-14.14,8-28.9,15.55-40.52,9.13-14.03,20.49-31.49,34.68-40.01,1.39-.82,2.64-.59,4.73-.12,1.24.28,2.66.61,4.19.55,6.04-.2,12.95-3.42,16.79-7.82h0c4.43-5.08,6.36-12.13,5.3-19.33h0Z"/>
        </g>
        <path class="cls-2" d="M1518.52,638.18c-89.32-7.29-175.73,38.48-248.84,87.24-41.43,27.63-84.09,53.81-124.11,84.92-15.18,11.8-34.11,26.3-47.34,40.24-3.58,3.76-5.08,11.36-1.38,15.58,1.61,1.84,5.84,3.7,7.81,5.08,2.66,1.87,6.24,3.23,3.69,2.03,0,0,18.04,8.38,27.69,10.91,35.33,9.27,70.94,20.81,106.71,26.39,38.91,6.06,78.51,11.97,118.13,10.72,39.92-1.26,79.11-9.18,117.69-19.17,42.46-10.99,81.7-33.1,113.54-63.31,13.53-12.84,27.46-27.59,33.73-45.52,25.78-73.71-38.78-149.53-107.32-155.12h0Z"/>
        <path class="cls-2" d="M2618.52,638.18c-89.32-7.29-175.73,38.48-248.84,87.24-41.43,27.63-84.09,53.81-124.11,84.92-15.18,11.8-34.11,26.3-47.34,40.24-3.58,3.76-5.08,11.36-1.38,15.58,1.61,1.84,5.84,3.7,7.81,5.08,2.66,1.87,6.24,3.23,3.68,2.03,0,0,18.05,8.38,27.7,10.91,35.33,9.27,70.94,20.81,106.71,26.39,38.91,6.06,78.51,11.97,118.13,10.72,39.92-1.26,79.11-9.18,117.69-19.17,42.46-10.99,81.7-33.1,113.54-63.31,13.53-12.84,27.46-27.59,33.73-45.52,25.78-73.71-38.78-149.53-107.32-155.12h0Z"/>
        <path class="cls-2" d="M3718.52,638.18c-89.32-7.29-175.73,38.48-248.84,87.24-41.43,27.63-84.09,53.81-124.11,84.92-15.18,11.8-34.11,26.3-47.34,40.24-3.58,3.76-5.08,11.36-1.38,15.58,1.61,1.84,5.84,3.7,7.81,5.08,2.66,1.87,6.24,3.23,3.68,2.03,0,0,18.05,8.38,27.7,10.91,35.33,9.27,70.94,20.81,106.71,26.39,38.91,6.06,78.51,11.97,118.13,10.72,39.92-1.26,79.11-9.18,117.69-19.17,42.46-10.99,81.7-33.1,113.54-63.31,13.53-12.84,27.46-27.59,33.73-45.52,25.78-73.71-38.78-149.53-107.32-155.12h0Z"/>
      </g>
      <g id="antenna_dots" data-name="antenna dots">
        <path class="cls-3" d="M8.62,203.67c0-5.03-3.76-9.18-8.62-9.82v19.63c4.86-.64,8.62-4.78,8.62-9.81h0Z"/>
        <path class="cls-3" d="M85.41,257.66c0,3.99-3.23,7.22-7.22,7.22s-7.22-3.23-7.22-7.22,3.23-7.22,7.22-7.22,7.22,3.23,7.22,7.22h0Z"/>
        <path class="cls-3" d="M4398.71,193.77c-5.47,0-9.91,4.44-9.91,9.91s4.44,9.91,9.91,9.91c.44,0,.87-.04,1.29-.09v-19.63c-.42-.05-.85-.09-1.29-.09h0Z"/>
        <path class="cls-3" d="M4329.45,257.66c0,3.99-3.23,7.22-7.22,7.22s-7.23-3.23-7.23-7.22,3.24-7.22,7.23-7.22,7.22,3.23,7.22,7.22h0Z"/>
        <path class="cls-3" d="M1108.62,203.67c0,5.47-4.44,9.91-9.91,9.91s-9.91-4.44-9.91-9.91,4.44-9.91,9.91-9.91,9.91,4.44,9.91,9.91h0Z"/>
        <path class="cls-3" d="M1185.41,257.66c0,3.99-3.23,7.22-7.22,7.22s-7.23-3.23-7.23-7.22,3.24-7.22,7.23-7.22,7.22,3.23,7.22,7.22h0Z"/>
        <path class="cls-3" d="M1029.45,257.66c0,3.99-3.23,7.22-7.22,7.22s-7.23-3.23-7.23-7.22,3.24-7.22,7.23-7.22,7.22,3.23,7.22,7.22h0Z"/>
        <path class="cls-3" d="M2208.62,203.67c0,5.47-4.44,9.91-9.91,9.91s-9.91-4.44-9.91-9.91,4.44-9.91,9.91-9.91,9.91,4.44,9.91,9.91h0Z"/>
        <path class="cls-3" d="M2285.41,257.66c0,3.99-3.23,7.22-7.22,7.22s-7.23-3.23-7.23-7.22,3.24-7.22,7.23-7.22,7.22,3.23,7.22,7.22h0Z"/>
        <path class="cls-3" d="M2129.45,257.66c0,3.99-3.23,7.22-7.22,7.22s-7.23-3.23-7.23-7.22,3.24-7.22,7.23-7.22,7.22,3.23,7.22,7.22h0Z"/>
        <path class="cls-3" d="M3308.62,203.67c0,5.47-4.44,9.91-9.91,9.91s-9.91-4.44-9.91-9.91,4.44-9.91,9.91-9.91,9.91,4.44,9.91,9.91h0Z"/>
        <path class="cls-3" d="M3385.41,257.66c0,3.99-3.23,7.22-7.22,7.22s-7.23-3.23-7.23-7.22,3.24-7.22,7.23-7.22,7.22,3.23,7.22,7.22h0Z"/>
        <path class="cls-3" d="M3229.45,257.66c0,3.99-3.23,7.22-7.22,7.22s-7.23-3.23-7.23-7.22,3.24-7.22,7.23-7.22,7.22,3.23,7.22,7.22h0Z"/>
      </g>
      <g id="little_items" data-name="little items">
        <polygon class="cls-1" points="549 588 549 868 555 868 555 588 549 588 549 588"/>
        <path class="cls-1" d="M635.48,395.53c-4.27-18.1-11.38-34.13-20.47-50.35-3.65-6.51-8.96-13.72-14.73-19.69-1.51-1.57-4.16-2.98-6.46-2.45-2.49.58-3.56,3.33-4.49,5.39-2.07,4.58-4.45,9.01-6.31,13.69-9.17,22.93-18.82,45.57-25.49,69.4-1.91,6.83-4.39,13.75-5.43,20.78-.02.12-.04.25-.06.38-.02-.13-.05-.26-.06-.38-1.05-7.03-3.52-13.94-5.43-20.78-6.67-23.83-16.32-46.47-25.49-69.4-1.87-4.67-4.24-9.11-6.31-13.69-.93-2.05-2-4.81-4.49-5.39-2.31-.54-4.95.88-6.46,2.45-5.76,5.97-11.08,13.18-14.73,19.69-9.09,16.22-16.2,32.25-20.47,50.35-5.06,21.43-9.4,43.41-8.07,65.54,1.26,20.89,8.61,42.71,19.07,60.82,7.61,13.17,18.87,24.48,28.88,35.85,9.47,10.77,19.11,21.45,31,29.62,3.8,2.61,8.14,6.5,12.57,7.98,4.44-1.48,8.77-5.36,12.57-7.98,11.89-8.17,21.53-18.86,31-29.62,10.01-11.37,21.27-22.68,28.88-35.85,10.46-18.1,17.81-39.92,19.07-60.82,1.34-22.14-3.01-44.12-8.06-65.54h0Z"/>
        <polygon class="cls-1" points="1649 588 1649 868 1655 868 1655 588 1649 588 1649 588"/>
        <path class="cls-1" d="M1735.48,395.53c-4.27-18.1-11.38-34.13-20.47-50.35-3.65-6.51-8.97-13.72-14.73-19.69-1.51-1.57-4.15-2.98-6.46-2.45-2.49.58-3.56,3.33-4.49,5.39-2.08,4.58-4.45,9.01-6.32,13.69-9.17,22.93-18.82,45.57-25.49,69.4-1.92,6.83-4.39,13.75-5.43,20.78-.02.12-.04.25-.07.38-.02-.13-.04-.26-.06-.38-1.04-7.03-3.52-13.94-5.43-20.78-6.67-23.83-16.32-46.47-25.49-69.4-1.87-4.67-4.24-9.11-6.32-13.69-.93-2.05-2-4.81-4.49-5.39-2.31-.54-4.95.88-6.46,2.45-5.76,5.97-11.08,13.18-14.73,19.69-9.09,16.22-16.2,32.25-20.47,50.35-5.06,21.43-9.41,43.41-8.07,65.54,1.27,20.89,8.61,42.71,19.07,60.82,7.62,13.17,18.88,24.48,28.88,35.85,9.48,10.77,19.12,21.45,31,29.62,3.81,2.61,8.14,6.5,12.57,7.98,4.44-1.48,8.77-5.36,12.58-7.98,11.88-8.17,21.52-18.86,31-29.62,10-11.37,21.26-22.68,28.88-35.85,10.46-18.1,17.8-39.92,19.07-60.82,1.34-22.14-3.01-44.12-8.07-65.54h0Z"/>
        <polygon class="cls-1" points="2749 588 2749 868 2755 868 2755 588 2749 588 2749 588"/>
        <path class="cls-1" d="M2835.48,395.53c-4.27-18.1-11.38-34.13-20.47-50.35-3.65-6.51-8.97-13.72-14.73-19.69-1.51-1.57-4.15-2.98-6.46-2.45-2.49.58-3.56,3.33-4.49,5.39-2.08,4.58-4.45,9.01-6.32,13.69-9.17,22.93-18.82,45.57-25.49,69.4-1.92,6.83-4.39,13.75-5.43,20.78-.02.12-.04.25-.07.38-.02-.13-.04-.26-.06-.38-1.04-7.03-3.52-13.94-5.43-20.78-6.67-23.83-16.32-46.47-25.49-69.4-1.87-4.67-4.24-9.11-6.32-13.69-.93-2.05-2-4.81-4.49-5.39-2.31-.54-4.95.88-6.46,2.45-5.76,5.97-11.08,13.18-14.73,19.69-9.09,16.22-16.2,32.25-20.47,50.35-5.06,21.43-9.41,43.41-8.07,65.54,1.27,20.89,8.61,42.71,19.07,60.82,7.62,13.17,18.88,24.48,28.88,35.85,9.48,10.77,19.12,21.45,31,29.62,3.8,2.61,8.14,6.5,12.57,7.98,4.44-1.48,8.77-5.36,12.58-7.98,11.88-8.17,21.52-18.86,31-29.62,10-11.37,21.26-22.68,28.88-35.85,10.46-18.1,17.8-39.92,19.07-60.82,1.34-22.14-3.01-44.12-8.07-65.54h0Z"/>
        <polygon class="cls-1" points="3849 590 3849 870 3855 870 3855 590 3849 590 3849 590"/>
        <path class="cls-1" d="M3935.48,398.26c-4.27-18.1-11.38-34.13-20.47-50.35-3.65-6.51-8.97-13.72-14.73-19.69-1.51-1.57-4.15-2.98-6.46-2.45-2.49.58-3.56,3.33-4.49,5.39-2.08,4.58-4.45,9.01-6.32,13.69-9.17,22.93-18.82,45.57-25.49,69.4-1.92,6.83-4.39,13.75-5.43,20.78-.02.12-.04.25-.07.38-.02-.13-.04-.26-.06-.38-1.04-7.03-3.52-13.94-5.43-20.78-6.67-23.83-16.32-46.47-25.49-69.4-1.87-4.67-4.24-9.11-6.32-13.69-.93-2.05-2-4.81-4.49-5.39-2.31-.54-4.95.88-6.46,2.45-5.76,5.97-11.08,13.18-14.73,19.69-9.09,16.22-16.2,32.25-20.47,50.35-5.06,21.43-9.41,43.41-8.07,65.54,1.27,20.89,8.61,42.71,19.07,60.82,7.62,13.17,18.88,24.48,28.88,35.85,9.48,10.77,19.12,21.45,31,29.63,3.8,2.61,8.14,6.5,12.57,7.98,4.44-1.48,8.77-5.36,12.58-7.98,11.88-8.17,21.52-18.86,31-29.63,10-11.37,21.26-22.68,28.88-35.85,10.46-18.1,17.8-39.92,19.07-60.82,1.34-22.14-3.01-44.11-8.07-65.54h0Z"/>
      </g>
      <g id="little_sticks" data-name="little sticks">
        <path class="cls-2" d="M4,866.17c3.69-4.22,2.19-11.82-1.38-15.58-.85-.9-1.73-1.79-2.62-2.69v21.11c1.59-.9,3.16-1.88,4-2.84h0Z"/>
        <polygon class="cls-2" points="6 645 0 645.02 0 868 7 868 6 645.04 6 645"/>
        <path class="cls-2" d="M4398.23,850.59c-3.58,3.76-5.08,11.36-1.38,15.58.69.79,1.87,1.59,3.15,2.35v-19.75c-.6.61-1.2,1.22-1.77,1.82h0Z"/>
        <polygon class="cls-2" points="4395 868 4400 867.98 4400 645 4394 645 4395 867.84 4395 868"/>
        <polygon class="cls-2" points="1106 645 1094 645.04 1094.67 868 1107 868 1106 645.04 1106 645"/>
        <polygon class="cls-2" points="2206 645 2194 645.04 2194.67 868 2207 868 2206 645.04 2206 645"/>
        <polygon class="cls-2" points="3306 645 3294 645.04 3294.67 868 3307 868 3306 645.04 3306 645"/>
      </g>
      <g id="central_bubbles" data-name="central bubbles">
        <path class="cls-5" d="M365.91,688.96c-10.86.81-21.34,3.74-31.74,6.8-70.58,20.76-132.85,61.17-197.2,95.4-26.45,14.07-52.9,28.04-79.97,40.86-10.37,4.91-28.11,10.85-34.4,21.33-.93,1.55-1.33,3.57.72,4.34,1.38.52,3.67.84,3.67.84,12.75.35,17.07,1.85,26.02,1.55,23.64-.79,50.59-2.51,75.21-5.66,80.44-10.3,162.22-15.3,239.2-43.54,27.22-9.99,71.02-30.72,76.26-63.23,6.58-40.83-45.18-61.13-77.78-58.69h0Z"/>
        <path class="cls-5" d="M23.82,725.57c.1-.05,1.53-.89,1.97-1.01l-1.08.02c28.34-13.18,54.83-29.34,81.24-46.32,10.76-6.92,21.76-13.41,32.23-20.82,37.33-26.41,72.72-57.45,104.89-90.39,12.78-13.09,26.65-25.09,38.42-39.21,16.38-19.65,31.71-47.25,31.16-74.13-.46-22.75-19.14-42.09-41.52-35.96-20.18,5.53-32.07,27.2-38.48,46.47-4.05,12.17-5.86,24.7-8.67,37.18-3.15,13.98-7.49,28.37-12.93,41.6-5.2,12.67-13.3,23.86-21.39,34.64-4.78,6.37-9.66,12.74-15.03,18.59-1.39,1.52-3.77,5.17-5.53,5.94,5.77-10.84,10.25-20.23,15.44-31.39,4.66-10.02,9.55-21.03,9.09-32.42-.28-6.94-1.71-14.43-5.4-20.25-7.57-11.94-22.25-15.67-34.39-9.9-12.68,6.04-20.11,19.73-25.83,32.49-9.05,20.18-9.25,41.44-14.14,62.68-2.54,11.05-7.48,21.94-12.97,31.67-5.8,10.27-12.31,20-19.28,29.41-1.56,2.1-3.07,4.23-4.69,6.29-.09.12-1.41,1.91-1.54,1.83-.09-.06,2.33-5,2.47-5.28,2.71-5.72,5.53-11.37,7.85-17.29,8.03-20.52,19.87-50.8-1.76-66.98-3.74-2.8-8.5-4.86-13.15-4.69-13.06.47-23.75,12.07-28.97,23.92-10.9,24.75-14.75,51.63-28.65,75.15-3.99,6.76-8.32,13.07-13.17,18.91v40.71c5.66-1.65,11.28-5.06,16.25-7.53,2.54-1.26,5.03-2.65,7.57-3.92h0Z"/>
        <path class="cls-5" d="M17.63,553.3c5.82-5.76,11.81-12.76,17.83-17.59,11.16-8.95,22.92-18.52,35.45-25.38,11.32-6.19,23.15-11.43,34.54-17.49,18.83-10.02,37.34-20.8,55.9-31.31,16.56-9.38,34.26-18.39,48.2-31.56,19.04-17.98,25.84-51.35,6.18-71.71-14.76-15.28-40.49-13.5-59.64-10.83-21.31,2.98-40.29,11.63-58.32,23.08-31.43,19.97-57.28,47.72-73.59,81.34-10.78,22.23-19.27,45.08-24.18,69.14v51.42c.21-.1.43-.21.65-.36,7.04-4.61,10.77-12.62,16.98-18.76h0Z"/>
        <path class="cls-5" d="M4374.81,853.35c-6.28-10.47-24.02-16.41-34.39-21.33-27.08-12.83-53.53-26.79-79.98-40.86-64.34-34.23-126.61-74.64-197.19-95.4-10.4-3.06-20.89-5.98-31.74-6.8-32.6-2.44-84.36,17.87-77.78,58.69,5.24,32.51,49.03,53.24,76.26,63.23,76.98,28.24,158.76,33.24,239.2,43.54,24.62,3.15,51.58,4.87,75.21,5.66,8.94.3,13.27-1.2,26.02-1.55,0,0,2.29-.32,3.67-.84,2.05-.77,1.65-2.79.72-4.34h0Z"/>
        <path class="cls-5" d="M4399.46,696.99c-5.07-6.02-9.56-12.57-13.7-19.58-13.9-23.52-17.75-50.4-28.65-75.15-5.23-11.86-15.91-23.45-28.97-23.92-4.66-.17-9.42,1.89-13.16,4.69-21.62,16.18-9.79,46.46-1.75,66.98,2.32,5.92,5.13,11.57,7.85,17.29.13.28,2.55,5.22,2.46,5.28-.13.08-1.45-1.71-1.54-1.83-1.61-2.05-3.13-4.19-4.68-6.29-6.97-9.41-13.49-19.14-19.28-29.41-5.5-9.73-10.43-20.62-12.97-31.67-4.88-21.24-5.09-42.5-14.14-62.68-5.72-12.76-13.16-26.45-25.84-32.49-12.13-5.78-26.81-2.04-34.38,9.9-3.7,5.82-5.13,13.31-5.41,20.25-.46,11.39,4.43,22.4,9.09,32.42,5.19,11.16,9.66,20.55,15.44,31.39-1.76-.77-4.14-4.43-5.53-5.94-5.37-5.85-10.25-12.21-15.03-18.59-8.09-10.78-16.19-21.98-21.39-34.64-5.43-13.23-9.77-27.61-12.92-41.6-2.82-12.48-4.63-25.01-8.67-37.18-6.41-19.27-18.3-40.94-38.48-46.47-22.38-6.13-41.06,13.21-41.52,35.96-.55,26.88,14.78,54.48,31.16,74.13,11.77,14.13,25.64,26.13,38.42,39.21,32.16,32.95,67.55,63.98,104.88,90.39,10.47,7.41,21.47,13.9,32.23,20.82,26.41,16.99,52.9,33.14,81.24,46.32l-1.08-.02c.43.12,1.87.96,1.97,1.01,2.53,1.27,5.02,2.66,7.56,3.92,5.13,2.55,10.95,6.12,16.79,7.7.18-.05.36-.12.54-.17v-40.71c-.18.22-.35.45-.54.67h0Z"/>
        <path class="cls-5" d="M4399.46,523.66c-4.81-25.03-13.54-48.75-24.71-71.79-16.31-33.62-42.16-61.37-73.6-81.34-18.03-11.46-37-20.11-58.31-23.08-19.15-2.67-44.88-4.45-59.65,10.83-19.66,20.36-12.86,53.73,6.18,71.71,13.94,13.16,31.64,22.18,48.2,31.56,18.56,10.51,37.07,21.29,55.9,31.31,11.4,6.06,23.22,11.29,34.55,17.49,12.53,6.86,24.28,16.43,35.44,25.38,6.02,4.83,12.01,11.83,17.83,17.59,6.21,6.14,9.95,14.16,16.98,18.76.43.28.83.46,1.19.56.17-.05.35-.12.54-.2v-51.42c-.18.88-.37,1.77-.54,2.65h0Z"/>
        <path class="cls-5" d="M1074.81,853.35c-6.28-10.47-24.02-16.41-34.39-21.33-27.08-12.83-53.53-26.79-79.98-40.86-64.34-34.23-126.61-74.64-197.2-95.4-10.4-3.06-20.88-5.98-31.74-6.8-32.6-2.44-84.36,17.87-77.78,58.69,5.24,32.51,49.04,53.24,76.26,63.23,76.98,28.24,158.76,33.24,239.2,43.54,24.62,3.15,51.58,4.87,75.21,5.66,8.94.3,13.27-1.2,26.02-1.55,0,0,2.29-.32,3.67-.84,2.05-.77,1.65-2.79.72-4.34h0Z"/>
        <path class="cls-5" d="M1465.91,688.96c-10.86.81-21.34,3.74-31.74,6.8-70.58,20.76-132.85,61.17-197.2,95.4-26.44,14.07-52.89,28.04-79.97,40.86-10.37,4.91-28.11,10.85-34.4,21.33-.93,1.55-1.32,3.57.72,4.34,1.39.52,3.68.84,3.68.84,12.75.35,17.07,1.85,26.01,1.55,23.64-.79,50.59-2.51,75.22-5.66,80.44-10.3,162.22-15.3,239.2-43.54,27.22-9.99,71.01-30.72,76.26-63.23,6.58-40.83-45.19-61.13-77.78-58.69h0Z"/>
        <path class="cls-5" d="M1099.46,737.19c-5.84-1.58-11.66-5.15-16.79-7.7-2.54-1.26-5.02-2.65-7.56-3.92-.1-.05-1.54-.89-1.97-1.01l1.08.02c-28.34-13.18-54.83-29.34-81.24-46.32-10.76-6.92-21.76-13.41-32.23-20.82-37.33-26.41-72.72-57.45-104.88-90.39-12.78-13.09-26.65-25.09-38.42-39.21-16.38-19.65-31.71-47.25-31.16-74.13.46-22.75,19.14-42.09,41.52-35.96,20.18,5.53,32.07,27.2,38.48,46.47,4.05,12.17,5.86,24.7,8.67,37.18,3.15,13.98,7.49,28.37,12.92,41.6,5.2,12.67,13.3,23.86,21.39,34.64,4.78,6.37,9.66,12.74,15.03,18.59,1.39,1.52,3.77,5.17,5.53,5.94-5.77-10.84-10.25-20.23-15.44-31.39-4.66-10.02-9.55-21.03-9.09-32.42.28-6.94,1.71-14.43,5.4-20.25,7.57-11.94,22.25-15.67,34.39-9.9,12.68,6.04,20.11,19.73,25.84,32.49,9.05,20.18,9.25,41.44,14.14,62.68,2.54,11.05,7.48,21.94,12.97,31.67,5.79,10.27,12.31,20,19.28,29.41,1.55,2.1,3.07,4.23,4.68,6.29.09.12,1.41,1.91,1.54,1.83.09-.06-2.33-5-2.46-5.28-2.72-5.72-5.53-11.37-7.85-17.29-8.04-20.52-19.87-50.8,1.75-66.98,3.74-2.8,8.5-4.86,13.16-4.69,13.06.47,23.74,12.07,28.97,23.92,10.9,24.75,14.75,51.63,28.65,75.15,4.14,7.01,8.63,13.56,13.7,19.58,5.08-6.02,9.56-12.57,13.71-19.58,13.9-23.52,17.75-50.4,28.65-75.15,5.22-11.86,15.9-23.45,28.97-23.92,4.65-.17,9.41,1.89,13.15,4.69,21.62,16.18,9.79,46.46,1.76,66.98-2.32,5.92-5.14,11.57-7.85,17.29-.14.28-2.56,5.22-2.47,5.28.13.08,1.45-1.71,1.54-1.83,1.61-2.05,3.13-4.19,4.69-6.29,6.96-9.41,13.48-19.14,19.28-29.41,5.49-9.73,10.43-20.62,12.97-31.67,4.88-21.24,5.08-42.5,14.13-62.68,5.73-12.76,13.16-26.45,25.84-32.49,12.14-5.78,26.82-2.04,34.39,9.9,3.69,5.82,5.12,13.31,5.4,20.25.46,11.39-4.43,22.4-9.09,32.42-5.19,11.16-9.66,20.55-15.44,31.39,1.76-.77,4.14-4.43,5.54-5.94,5.36-5.85,10.24-12.21,15.02-18.59,8.09-10.78,16.19-21.98,21.39-34.64,5.44-13.23,9.78-27.61,12.93-41.6,2.81-12.48,4.62-25.01,8.67-37.18,6.41-19.27,18.29-40.94,38.47-46.47,22.38-6.13,41.06,13.21,41.53,35.96.54,26.88-14.78,54.48-31.16,74.13-11.78,14.13-25.65,26.13-38.42,39.21-32.17,32.95-67.56,63.98-104.89,90.39-10.47,7.41-21.47,13.9-32.23,20.82-26.4,16.99-52.89,33.14-81.23,46.32l1.08-.02c-.44.12-1.87.96-1.97,1.01-2.54,1.27-5.03,2.66-7.57,3.92-5.13,2.55-10.94,6.12-16.79,7.7h0Z"/>
        <path class="cls-5" d="M1099.46,523.66c-4.81-25.03-13.54-48.75-24.71-71.79-16.31-33.62-42.16-61.37-73.6-81.34-18.03-11.46-37-20.11-58.31-23.08-19.15-2.67-44.88-4.45-59.64,10.83-19.67,20.36-12.87,53.73,6.18,71.71,13.94,13.16,31.64,22.18,48.2,31.56,18.56,10.51,37.07,21.29,55.91,31.31,11.4,6.06,23.22,11.29,34.55,17.49,12.53,6.86,24.28,16.43,35.44,25.38,6.02,4.83,12.01,11.83,17.83,17.59,6.21,6.14,9.95,14.16,16.98,18.76.43.28.83.46,1.19.56.37-.1.76-.28,1.19-.56,7.04-4.61,10.77-12.62,16.98-18.76,5.82-5.76,11.81-12.76,17.83-17.59,11.16-8.95,22.92-18.52,35.45-25.38,11.32-6.19,23.15-11.43,34.54-17.49,18.83-10.02,37.34-20.8,55.9-31.31,16.56-9.38,34.26-18.39,48.2-31.56,19.05-17.98,25.85-51.35,6.18-71.71-14.76-15.28-40.5-13.5-59.64-10.83-21.32,2.98-40.29,11.63-58.32,23.08-31.43,19.97-57.28,47.72-73.59,81.34-11.18,23.04-19.91,46.76-24.72,71.79h0Z"/>
        <path class="cls-5" d="M2174.81,853.35c-6.28-10.47-24.02-16.41-34.39-21.33-27.08-12.83-53.53-26.79-79.98-40.86-64.34-34.23-126.61-74.64-197.19-95.4-10.4-3.06-20.89-5.98-31.74-6.8-32.6-2.44-84.36,17.87-77.78,58.69,5.24,32.51,49.03,53.24,76.26,63.23,76.98,28.24,158.76,33.24,239.2,43.54,24.62,3.15,51.58,4.87,75.21,5.66,8.94.3,13.27-1.2,26.02-1.55,0,0,2.29-.32,3.67-.84,2.05-.77,1.65-2.79.72-4.34h0Z"/>
        <path class="cls-5" d="M2565.91,688.96c-10.86.81-21.34,3.74-31.74,6.8-70.58,20.76-132.85,61.17-197.2,95.4-26.44,14.07-52.89,28.04-79.97,40.86-10.37,4.91-28.11,10.85-34.4,21.33-.93,1.55-1.32,3.57.72,4.34,1.39.52,3.68.84,3.68.84,12.75.35,17.07,1.85,26.01,1.55,23.64-.79,50.59-2.51,75.22-5.66,80.44-10.3,162.22-15.3,239.2-43.54,27.22-9.99,71.01-30.72,76.26-63.23,6.58-40.83-45.19-61.13-77.78-58.69h0Z"/>
        <path class="cls-5" d="M2199.46,737.19c-5.84-1.58-11.66-5.15-16.79-7.7-2.54-1.26-5.02-2.65-7.56-3.92-.1-.05-1.54-.89-1.97-1.01l1.08.02c-28.34-13.18-54.83-29.34-81.24-46.32-10.76-6.92-21.76-13.41-32.23-20.82-37.33-26.41-72.72-57.45-104.88-90.39-12.78-13.09-26.65-25.09-38.42-39.21-16.38-19.65-31.71-47.25-31.16-74.13.46-22.75,19.14-42.09,41.52-35.96,20.18,5.53,32.07,27.2,38.48,46.47,4.04,12.17,5.85,24.7,8.67,37.18,3.15,13.98,7.48,28.37,12.92,41.6,5.2,12.67,13.3,23.86,21.39,34.64,4.79,6.37,9.66,12.74,15.03,18.59,1.39,1.52,3.77,5.17,5.53,5.94-5.78-10.84-10.25-20.23-15.44-31.39-4.66-10.02-9.55-21.03-9.09-32.42.28-6.94,1.71-14.43,5.41-20.25,7.57-11.94,22.25-15.67,34.38-9.9,12.68,6.04,20.12,19.73,25.84,32.49,9.05,20.18,9.26,41.44,14.14,62.68,2.54,11.05,7.47,21.94,12.97,31.67,5.79,10.27,12.31,20,19.28,29.41,1.55,2.1,3.07,4.23,4.68,6.29.09.12,1.41,1.91,1.54,1.83.09-.06-2.33-5-2.46-5.28-2.72-5.72-5.53-11.37-7.85-17.29-8.04-20.52-19.87-50.8,1.75-66.98,3.74-2.8,8.5-4.86,13.16-4.69,13.06.47,23.74,12.07,28.97,23.92,10.9,24.75,14.75,51.63,28.65,75.15,4.14,7.01,8.63,13.56,13.7,19.58,5.08-6.02,9.56-12.57,13.71-19.58,13.9-23.52,17.75-50.4,28.65-75.15,5.22-11.86,15.9-23.45,28.97-23.92,4.65-.17,9.41,1.89,13.15,4.69,21.62,16.18,9.79,46.46,1.76,66.98-2.32,5.92-5.14,11.57-7.85,17.29-.14.28-2.56,5.22-2.47,5.28.13.08,1.45-1.71,1.54-1.83,1.61-2.05,3.13-4.19,4.69-6.29,6.96-9.41,13.48-19.14,19.28-29.41,5.49-9.73,10.43-20.62,12.97-31.67,4.88-21.24,5.08-42.5,14.13-62.68,5.73-12.76,13.16-26.45,25.84-32.49,12.13-5.78,26.81-2.04,34.39,9.9,3.69,5.82,5.12,13.31,5.4,20.25.46,11.39-4.43,22.4-9.09,32.42-5.19,11.16-9.66,20.55-15.44,31.39,1.76-.77,4.14-4.43,5.54-5.94,5.36-5.85,10.24-12.21,15.02-18.59,8.09-10.78,16.19-21.98,21.39-34.64,5.44-13.23,9.78-27.61,12.93-41.6,2.81-12.48,4.62-25.01,8.67-37.18,6.4-19.27,18.29-40.94,38.47-46.47,22.38-6.13,41.06,13.21,41.53,35.96.54,26.88-14.78,54.48-31.16,74.13-11.78,14.13-25.65,26.13-38.42,39.21-32.17,32.95-67.56,63.98-104.89,90.39-10.47,7.41-21.47,13.9-32.23,20.82-26.4,16.99-52.9,33.14-81.23,46.32l1.08-.02c-.44.12-1.87.96-1.97,1.01-2.54,1.27-5.03,2.66-7.57,3.92-5.13,2.55-10.94,6.12-16.79,7.7h0Z"/>
        <path class="cls-5" d="M2199.46,523.66c-4.81-25.03-13.54-48.75-24.71-71.79-16.31-33.62-42.16-61.37-73.6-81.34-18.03-11.46-37-20.11-58.31-23.08-19.15-2.67-44.88-4.45-59.65,10.83-19.66,20.36-12.86,53.73,6.18,71.71,13.94,13.16,31.64,22.18,48.2,31.56,18.56,10.51,37.07,21.29,55.9,31.31,11.4,6.06,23.22,11.29,34.55,17.49,12.53,6.86,24.28,16.43,35.44,25.38,6.02,4.83,12.01,11.83,17.83,17.59,6.21,6.14,9.95,14.16,16.98,18.76.43.28.83.46,1.19.56.37-.1.76-.28,1.19-.56,7.04-4.61,10.77-12.62,16.98-18.76,5.82-5.76,11.81-12.76,17.83-17.59,11.16-8.95,22.92-18.52,35.45-25.38,11.32-6.19,23.15-11.43,34.54-17.49,18.83-10.02,37.34-20.8,55.9-31.31,16.56-9.38,34.26-18.39,48.2-31.56,19.05-17.98,25.85-51.35,6.18-71.71-14.76-15.28-40.49-13.5-59.64-10.83-21.32,2.98-40.29,11.63-58.32,23.08-31.43,19.97-57.28,47.72-73.59,81.34-11.18,23.04-19.9,46.76-24.72,71.79h0Z"/>
        <path class="cls-5" d="M3274.81,853.35c-6.28-10.47-24.02-16.41-34.39-21.33-27.08-12.83-53.53-26.79-79.98-40.86-64.34-34.23-126.61-74.64-197.19-95.4-10.4-3.06-20.89-5.98-31.74-6.8-32.6-2.44-84.36,17.87-77.78,58.69,5.24,32.51,49.03,53.24,76.26,63.23,76.98,28.24,158.76,33.24,239.2,43.54,24.62,3.15,51.58,4.87,75.21,5.66,8.94.3,13.27-1.2,26.02-1.55,0,0,2.29-.32,3.67-.84,2.05-.77,1.65-2.79.72-4.34h0Z"/>
        <path class="cls-5" d="M3665.91,688.96c-10.86.81-21.34,3.74-31.74,6.8-70.58,20.76-132.85,61.17-197.2,95.4-26.44,14.07-52.89,28.04-79.97,40.86-10.37,4.91-28.11,10.85-34.4,21.33-.93,1.55-1.32,3.57.72,4.34,1.39.52,3.68.84,3.68.84,12.75.35,17.07,1.85,26.01,1.55,23.64-.79,50.59-2.51,75.22-5.66,80.44-10.3,162.22-15.3,239.2-43.54,27.22-9.99,71.01-30.72,76.26-63.23,6.58-40.83-45.19-61.13-77.78-58.69h0Z"/>
        <path class="cls-5" d="M3299.46,737.19c-5.84-1.58-11.66-5.15-16.79-7.7-2.54-1.26-5.02-2.65-7.56-3.92-.1-.05-1.54-.89-1.97-1.01l1.08.02c-28.34-13.18-54.83-29.34-81.24-46.32-10.76-6.92-21.76-13.41-32.23-20.82-37.33-26.41-72.72-57.45-104.88-90.39-12.78-13.09-26.65-25.09-38.42-39.21-16.38-19.65-31.71-47.25-31.16-74.13.46-22.75,19.14-42.09,41.52-35.96,20.18,5.53,32.07,27.2,38.48,46.47,4.04,12.17,5.85,24.7,8.67,37.18,3.15,13.98,7.49,28.37,12.92,41.6,5.2,12.67,13.3,23.86,21.39,34.64,4.78,6.37,9.66,12.74,15.03,18.59,1.39,1.52,3.77,5.17,5.53,5.94-5.78-10.84-10.25-20.23-15.44-31.39-4.66-10.02-9.55-21.03-9.09-32.42.28-6.94,1.71-14.43,5.41-20.25,7.57-11.94,22.25-15.67,34.38-9.9,12.68,6.04,20.12,19.73,25.84,32.49,9.05,20.18,9.26,41.44,14.14,62.68,2.54,11.05,7.47,21.94,12.97,31.67,5.79,10.27,12.31,20,19.28,29.41,1.55,2.1,3.07,4.23,4.68,6.29.09.12,1.42,1.91,1.54,1.83.09-.06-2.33-5-2.46-5.28-2.72-5.72-5.53-11.37-7.85-17.29-8.04-20.52-19.87-50.8,1.75-66.98,3.74-2.8,8.5-4.86,13.16-4.69,13.06.47,23.74,12.07,28.97,23.92,10.9,24.75,14.75,51.63,28.65,75.15,4.14,7.01,8.63,13.56,13.7,19.58,5.08-6.02,9.56-12.57,13.71-19.58,13.9-23.52,17.75-50.4,28.65-75.15,5.22-11.86,15.9-23.45,28.97-23.92,4.65-.17,9.41,1.89,13.15,4.69,21.62,16.18,9.79,46.46,1.76,66.98-2.32,5.92-5.14,11.57-7.85,17.29-.14.28-2.56,5.22-2.47,5.28.13.08,1.45-1.71,1.54-1.83,1.61-2.05,3.13-4.19,4.69-6.29,6.96-9.41,13.48-19.14,19.28-29.41,5.49-9.73,10.43-20.62,12.97-31.67,4.88-21.24,5.08-42.5,14.13-62.68,5.73-12.76,13.16-26.45,25.84-32.49,12.13-5.78,26.81-2.04,34.39,9.9,3.69,5.82,5.12,13.31,5.4,20.25.46,11.39-4.43,22.4-9.09,32.42-5.19,11.16-9.66,20.55-15.44,31.39,1.76-.77,4.14-4.43,5.54-5.94,5.36-5.85,10.24-12.21,15.02-18.59,8.09-10.78,16.19-21.98,21.39-34.64,5.44-13.23,9.78-27.61,12.93-41.6,2.81-12.48,4.62-25.01,8.67-37.18,6.4-19.27,18.29-40.94,38.47-46.47,22.38-6.13,41.06,13.21,41.53,35.96.54,26.88-14.78,54.48-31.16,74.13-11.78,14.13-25.65,26.13-38.42,39.21-32.17,32.95-67.56,63.98-104.89,90.39-10.47,7.41-21.47,13.9-32.23,20.82-26.4,16.99-52.9,33.14-81.23,46.32l1.08-.02c-.44.12-1.87.96-1.97,1.01-2.54,1.27-5.03,2.66-7.57,3.92-5.13,2.55-10.94,6.12-16.79,7.7h0Z"/>
        <path class="cls-5" d="M3299.46,523.66c-4.81-25.03-13.54-48.75-24.71-71.79-16.31-33.62-42.16-61.37-73.6-81.34-18.03-11.46-37-20.11-58.31-23.08-19.15-2.67-44.88-4.45-59.65,10.83-19.66,20.36-12.86,53.73,6.18,71.71,13.94,13.16,31.64,22.18,48.2,31.56,18.56,10.51,37.07,21.29,55.9,31.31,11.4,6.06,23.22,11.29,34.55,17.49,12.53,6.86,24.28,16.43,35.44,25.38,6.02,4.83,12.01,11.83,17.83,17.59,6.21,6.14,9.95,14.16,16.98,18.76.43.28.83.46,1.19.56.37-.1.76-.28,1.19-.56,7.04-4.61,10.77-12.62,16.98-18.76,5.82-5.76,11.81-12.76,17.83-17.59,11.16-8.95,22.92-18.52,35.45-25.38,11.32-6.19,23.15-11.43,34.54-17.49,18.83-10.02,37.34-20.8,55.9-31.31,16.56-9.38,34.26-18.39,48.2-31.56,19.05-17.98,25.85-51.35,6.18-71.71-14.76-15.28-40.49-13.5-59.64-10.83-21.32,2.98-40.29,11.63-58.32,23.08-31.43,19.97-57.28,47.72-73.59,81.34-11.18,23.04-19.9,46.76-24.72,71.79h0Z"/>
      </g>
      <g id="center_dots" data-name="center dots">
        <path class="cls-3" d="M18.32,617.72c0-10.39-8.09-18.87-18.32-19.54v39.08c10.23-.67,18.32-9.15,18.32-19.54h0Z"/>
        <path class="cls-3" d="M4398.71,598.11c-10.83,0-19.6,8.78-19.6,19.61s8.77,19.61,19.6,19.61c.44,0,.86-.04,1.29-.06v-39.08c-.43-.03-.85-.07-1.29-.07h0Z"/>
        <path class="cls-3" d="M1118.32,617.72c0,10.83-8.78,19.61-19.61,19.61s-19.6-8.78-19.6-19.61,8.77-19.61,19.6-19.61,19.61,8.78,19.61,19.61h0Z"/>
        <path class="cls-3" d="M2218.32,617.72c0,10.83-8.78,19.61-19.61,19.61s-19.6-8.78-19.6-19.61,8.77-19.61,19.6-19.61,19.61,8.78,19.61,19.61h0Z"/>
        <path class="cls-3" d="M3318.32,617.72c0,10.83-8.78,19.61-19.61,19.61s-19.6-8.78-19.6-19.61,8.77-19.61,19.6-19.61,19.61,8.78,19.61,19.61h0Z"/>
      </g>
      <g id="small_item_dots" data-name="small item dots">
        <path class="cls-3" d="M502.54,490.64c0,4.2-3.4,7.6-7.6,7.6s-7.6-3.4-7.6-7.6,3.4-7.6,7.6-7.6,7.6,3.4,7.6,7.6h0Z"/>
        <path class="cls-3" d="M616.7,490.64c0,4.2-3.4,7.6-7.6,7.6s-7.6-3.4-7.6-7.6,3.4-7.6,7.6-7.6,7.6,3.4,7.6,7.6h0Z"/>
        <path class="cls-3" d="M559.62,463.04c0,4.2-3.4,7.6-7.6,7.6s-7.59-3.4-7.59-7.6,3.4-7.59,7.59-7.59,7.6,3.4,7.6,7.59h0Z"/>
        <path class="cls-5" d="M552.02,478.97c-.55,0-1.1,0-1.66.04-12.29.83-22.77,10.96-27.75,20.45-.43.82-.79,1.65-1.1,2.47-8.18-2.55-17-.35-23.56,5.69-1.91,1.76-3.61,3.77-4.77,6.01-1.11,2.13-1.59,4.46-1.54,6.81.16,8.65,6.65,15.46,13.82,20.51,2.71,1.91,4.84,3.15,7.68,4.55,1.34.67,4.85-1.61,5.98-2.14,2.7-1.25,5.5-2.33,8.36-3.24,5.73-1.83,11.71-2.98,17.76-3.46,2.26-.18,4.52-.26,6.78-.25,2.27-.01,4.53.07,6.79.25,6.05.47,12.03,1.63,17.76,3.46,2.86.91,5.66,2,8.36,3.24,1.13.52,4.64,2.8,5.98,2.14,2.84-1.4,4.97-2.64,7.68-4.55,7.17-5.04,13.65-11.86,13.82-20.51.04-2.35-.43-4.68-1.54-6.81-1.17-2.24-2.86-4.25-4.77-6.01-6.56-6.04-15.38-8.25-23.56-5.69-.31-.83-.67-1.65-1.1-2.47-4.98-9.49-15.46-19.62-27.75-20.45-.56-.04-1.11-.05-1.67-.04h0Z"/>
        <path class="cls-3" d="M1602.54,490.64c0,4.2-3.4,7.6-7.6,7.6s-7.59-3.4-7.59-7.6,3.4-7.6,7.59-7.6,7.6,3.4,7.6,7.6h0Z"/>
        <path class="cls-3" d="M1716.7,490.64c0,4.2-3.4,7.6-7.6,7.6s-7.59-3.4-7.59-7.6,3.4-7.6,7.59-7.6,7.6,3.4,7.6,7.6h0Z"/>
        <path class="cls-3" d="M1659.62,463.04c0,4.2-3.4,7.6-7.6,7.6s-7.59-3.4-7.59-7.6,3.4-7.59,7.59-7.59,7.6,3.4,7.6,7.59h0Z"/>
        <path class="cls-5" d="M1652.02,478.97c-.55,0-1.1,0-1.66.04-12.29.83-22.77,10.96-27.75,20.45-.43.82-.79,1.65-1.1,2.47-8.17-2.55-17-.35-23.56,5.69-1.91,1.76-3.6,3.77-4.77,6.01-1.11,2.13-1.58,4.46-1.54,6.81.16,8.65,6.64,15.46,13.82,20.51,2.7,1.91,4.84,3.15,7.68,4.55,1.34.67,4.85-1.61,5.98-2.14,2.7-1.25,5.5-2.33,8.36-3.24,5.73-1.83,11.71-2.98,17.76-3.46,2.25-.18,4.52-.26,6.78-.25,2.27-.01,4.54.07,6.79.25,6.05.47,12.03,1.63,17.76,3.46,2.86.91,5.66,2,8.36,3.24,1.13.52,4.64,2.8,5.98,2.14,2.84-1.4,4.98-2.64,7.68-4.55,7.17-5.04,13.66-11.86,13.82-20.51.04-2.35-.43-4.68-1.54-6.81-1.17-2.24-2.86-4.25-4.77-6.01-6.57-6.04-15.39-8.25-23.56-5.69-.31-.83-.67-1.65-1.1-2.47-4.98-9.49-15.46-19.62-27.75-20.45-.56-.04-1.12-.05-1.67-.04h0Z"/>
        <path class="cls-3" d="M2702.54,490.64c0,4.2-3.4,7.6-7.59,7.6s-7.6-3.4-7.6-7.6,3.4-7.6,7.6-7.6,7.59,3.4,7.59,7.6h0Z"/>
        <path class="cls-3" d="M2816.7,490.64c0,4.2-3.4,7.6-7.6,7.6s-7.59-3.4-7.59-7.6,3.4-7.6,7.59-7.6,7.6,3.4,7.6,7.6h0Z"/>
        <path class="cls-3" d="M2759.62,463.04c0,4.2-3.4,7.6-7.6,7.6s-7.59-3.4-7.59-7.6,3.4-7.59,7.59-7.59,7.6,3.4,7.6,7.59h0Z"/>
        <path class="cls-5" d="M2752.02,478.97c-.55,0-1.1,0-1.66.04-12.29.83-22.77,10.96-27.75,20.45-.43.82-.79,1.65-1.1,2.47-8.17-2.55-17-.35-23.56,5.69-1.91,1.76-3.6,3.77-4.77,6.01-1.11,2.13-1.58,4.46-1.54,6.81.16,8.65,6.64,15.46,13.82,20.51,2.7,1.91,4.84,3.15,7.68,4.55,1.34.67,4.85-1.61,5.98-2.14,2.7-1.25,5.5-2.33,8.36-3.24,5.73-1.83,11.71-2.98,17.76-3.46,2.25-.18,4.52-.26,6.78-.25,2.27-.01,4.53.07,6.79.25,6.05.47,12.03,1.63,17.76,3.46,2.86.91,5.66,2,8.36,3.24,1.13.52,4.64,2.8,5.98,2.14,2.84-1.4,4.97-2.64,7.68-4.55,7.17-5.04,13.66-11.86,13.82-20.51.04-2.35-.43-4.68-1.54-6.81-1.17-2.24-2.86-4.25-4.77-6.01-6.57-6.04-15.39-8.25-23.56-5.69-.31-.83-.67-1.65-1.1-2.47-4.98-9.49-15.46-19.62-27.75-20.45-.56-.04-1.11-.05-1.67-.04h0Z"/>
        <path class="cls-3" d="M3802.54,493.37c0,4.2-3.4,7.6-7.59,7.6s-7.6-3.4-7.6-7.6,3.4-7.6,7.6-7.6,7.59,3.4,7.59,7.6h0Z"/>
        <path class="cls-3" d="M3916.7,493.37c0,4.2-3.4,7.6-7.6,7.6s-7.59-3.4-7.59-7.6,3.4-7.6,7.59-7.6,7.6,3.4,7.6,7.6h0Z"/>
        <path class="cls-3" d="M3859.62,465.77c0,4.19-3.4,7.6-7.6,7.6s-7.59-3.4-7.59-7.6,3.4-7.6,7.59-7.6,7.6,3.4,7.6,7.6h0Z"/>
        <path class="cls-5" d="M3852.02,481.7c-.55,0-1.1,0-1.66.04-12.29.83-22.77,10.96-27.75,20.45-.43.82-.79,1.65-1.1,2.47-8.17-2.55-17-.35-23.56,5.69-1.91,1.76-3.6,3.77-4.77,6.01-1.11,2.13-1.58,4.46-1.54,6.81.16,8.65,6.64,15.47,13.82,20.51,2.7,1.9,4.84,3.15,7.68,4.55,1.34.66,4.85-1.61,5.98-2.14,2.7-1.25,5.5-2.33,8.36-3.24,5.73-1.83,11.71-2.98,17.76-3.46,2.25-.18,4.52-.26,6.78-.25,2.27-.01,4.53.07,6.79.25,6.05.47,12.03,1.63,17.76,3.46,2.86.91,5.66,2,8.36,3.24,1.13.52,4.64,2.8,5.98,2.14,2.84-1.4,4.97-2.65,7.68-4.55,7.17-5.04,13.66-11.86,13.82-20.51.04-2.35-.43-4.68-1.54-6.81-1.17-2.24-2.86-4.25-4.77-6.01-6.57-6.04-15.39-8.25-23.56-5.69-.31-.83-.67-1.65-1.1-2.47-4.98-9.49-15.46-19.62-27.75-20.45-.56-.04-1.11-.05-1.67-.04h0Z"/>
      </g>
      <g id="bars">
        <polygon class="cls-2" points="4400 1100 0 1100 0 1000 4400 1000 4400 1100 4400 1100"/>
        <polygon class="cls-2" points="4400 100 0 100 0 0 4400 0 4400 100 4400 100"/>
      </g>
      <g id="dots">
        <path class="cls-3" d="M11.73,1050c0-6.77-5.25-12.27-11.73-12.27h0v24.54h0c6.47,0,11.73-5.5,11.73-12.27h0Z"/>
        <path class="cls-3" d="M55.05,1036.17c-20.83,0-37.75,6.2-37.75,13.83s16.91,13.83,37.75,13.83,37.75-6.2,37.75-13.83-16.91-13.83-37.75-13.83h0Z"/>
        <path class="cls-3" d="M209.52,1037.73c-6.47,0-11.73,5.5-11.73,12.27s5.25,12.27,11.73,12.27,11.73-5.5,11.73-12.27-5.25-12.27-11.73-12.27h0Z"/>
        <path class="cls-3" d="M154.47,1036.17c-20.83,0-37.74,6.2-37.74,13.83s16.91,13.83,37.74,13.83,37.74-6.2,37.74-13.83-16.91-13.83-37.74-13.83h0Z"/>
        <path class="cls-3" d="M264.58,1036.17c-20.83,0-37.74,6.2-37.74,13.83s16.91,13.83,37.74,13.83,37.74-6.2,37.74-13.83-16.91-13.83-37.74-13.83h0Z"/>
        <path class="cls-3" d="M419.05,1037.73c-6.47,0-11.73,5.5-11.73,12.27s5.25,12.27,11.73,12.27,11.73-5.5,11.73-12.27-5.25-12.27-11.73-12.27h0Z"/>
        <path class="cls-3" d="M363.99,1036.17c-20.83,0-37.75,6.2-37.75,13.83s16.91,13.83,37.75,13.83,37.74-6.2,37.74-13.83-16.91-13.83-37.74-13.83h0Z"/>
        <path class="cls-3" d="M474.1,1036.17c-20.83,0-37.75,6.2-37.75,13.83s16.91,13.83,37.75,13.83,37.75-6.2,37.75-13.83-16.91-13.83-37.75-13.83h0Z"/>
        <path class="cls-3" d="M628.57,1037.73c-6.47,0-11.73,5.5-11.73,12.27s5.25,12.27,11.73,12.27,11.72-5.5,11.72-12.27-5.25-12.27-11.72-12.27h0Z"/>
        <path class="cls-3" d="M573.52,1036.17c-20.83,0-37.75,6.2-37.75,13.83s16.91,13.83,37.75,13.83,37.74-6.2,37.74-13.83-16.91-13.83-37.74-13.83h0Z"/>
        <path class="cls-3" d="M683.63,1036.17c-20.83,0-37.74,6.2-37.74,13.83s16.91,13.83,37.74,13.83,37.75-6.2,37.75-13.83-16.91-13.83-37.75-13.83h0Z"/>
        <path class="cls-3" d="M838.1,1037.73c-6.47,0-11.72,5.5-11.72,12.27s5.25,12.27,11.72,12.27,11.73-5.5,11.73-12.27-5.25-12.27-11.73-12.27h0Z"/>
        <path class="cls-3" d="M783.04,1036.17c-20.83,0-37.75,6.2-37.75,13.83s16.91,13.83,37.75,13.83,37.74-6.2,37.74-13.83-16.91-13.83-37.74-13.83h0Z"/>
        <path class="cls-3" d="M893.15,1036.17c-20.83,0-37.75,6.2-37.75,13.83s16.91,13.83,37.75,13.83,37.75-6.2,37.75-13.83-16.91-13.83-37.75-13.83h0Z"/>
        <path class="cls-3" d="M1047.62,1037.73c-6.47,0-11.73,5.5-11.73,12.27s5.26,12.27,11.73,12.27,11.72-5.5,11.72-12.27-5.25-12.27-11.72-12.27h0Z"/>
        <path class="cls-3" d="M992.57,1036.17c-20.83,0-37.75,6.2-37.75,13.83s16.91,13.83,37.75,13.83,37.74-6.2,37.74-13.83-16.91-13.83-37.74-13.83h0Z"/>
        <path class="cls-3" d="M1102.67,1036.17c-20.83,0-37.74,6.2-37.74,13.83s16.91,13.83,37.74,13.83,37.75-6.2,37.75-13.83-16.91-13.83-37.75-13.83h0Z"/>
        <path class="cls-3" d="M1257.14,1037.73c-6.47,0-11.72,5.5-11.72,12.27s5.25,12.27,11.72,12.27,11.73-5.5,11.73-12.27-5.26-12.27-11.73-12.27h0Z"/>
        <path class="cls-3" d="M1202.09,1036.17c-20.83,0-37.75,6.2-37.75,13.83s16.92,13.83,37.75,13.83,37.74-6.2,37.74-13.83-16.91-13.83-37.74-13.83h0Z"/>
        <path class="cls-3" d="M1312.2,1036.17c-20.84,0-37.75,6.2-37.75,13.83s16.91,13.83,37.75,13.83,37.74-6.2,37.74-13.83-16.91-13.83-37.74-13.83h0Z"/>
        <path class="cls-3" d="M1466.67,1037.73c-6.47,0-11.73,5.5-11.73,12.27s5.26,12.27,11.73,12.27,11.72-5.5,11.72-12.27-5.25-12.27-11.72-12.27h0Z"/>
        <path class="cls-3" d="M1411.61,1036.17c-20.83,0-37.74,6.2-37.74,13.83s16.91,13.83,37.74,13.83,37.75-6.2,37.75-13.83-16.91-13.83-37.75-13.83h0Z"/>
        <path class="cls-3" d="M1521.72,1036.17c-20.83,0-37.74,6.2-37.74,13.83s16.91,13.83,37.74,13.83,37.75-6.2,37.75-13.83-16.92-13.83-37.75-13.83h0Z"/>
        <path class="cls-3" d="M1676.19,1037.73c-6.47,0-11.73,5.5-11.73,12.27s5.26,12.27,11.73,12.27,11.73-5.5,11.73-12.27-5.26-12.27-11.73-12.27h0Z"/>
        <path class="cls-3" d="M1621.14,1036.17c-20.84,0-37.75,6.2-37.75,13.83s16.91,13.83,37.75,13.83,37.74-6.2,37.74-13.83-16.91-13.83-37.74-13.83h0Z"/>
        <path class="cls-3" d="M1731.24,1036.17c-20.83,0-37.74,6.2-37.74,13.83s16.91,13.83,37.74,13.83,37.75-6.2,37.75-13.83-16.91-13.83-37.75-13.83h0Z"/>
        <path class="cls-3" d="M1885.71,1037.73c-6.47,0-11.72,5.5-11.72,12.27s5.25,12.27,11.72,12.27,11.73-5.5,11.73-12.27-5.25-12.27-11.73-12.27h0Z"/>
        <path class="cls-3" d="M1830.66,1036.17c-20.83,0-37.74,6.2-37.74,13.83s16.91,13.83,37.74,13.83,37.75-6.2,37.75-13.83-16.92-13.83-37.75-13.83h0Z"/>
        <path class="cls-3" d="M1940.77,1036.17c-20.83,0-37.75,6.2-37.75,13.83s16.92,13.83,37.75,13.83,37.74-6.2,37.74-13.83-16.91-13.83-37.74-13.83h0Z"/>
        <path class="cls-3" d="M2095.24,1037.73c-6.47,0-11.73,5.5-11.73,12.27s5.26,12.27,11.73,12.27,11.72-5.5,11.72-12.27-5.25-12.27-11.72-12.27h0Z"/>
        <path class="cls-3" d="M2040.18,1036.17c-20.83,0-37.74,6.2-37.74,13.83s16.91,13.83,37.74,13.83,37.75-6.2,37.75-13.83-16.91-13.83-37.75-13.83h0Z"/>
        <path class="cls-3" d="M2150.29,1036.17c-20.83,0-37.74,6.2-37.74,13.83s16.91,13.83,37.74,13.83,37.75-6.2,37.75-13.83-16.92-13.83-37.75-13.83h0Z"/>
        <path class="cls-3" d="M2304.76,1037.73c-6.47,0-11.72,5.5-11.72,12.27s5.25,12.27,11.72,12.27,11.73-5.5,11.73-12.27-5.26-12.27-11.73-12.27h0Z"/>
        <path class="cls-3" d="M2249.71,1036.17c-20.83,0-37.75,6.2-37.75,13.83s16.92,13.83,37.75,13.83,37.74-6.2,37.74-13.83-16.91-13.83-37.74-13.83h0Z"/>
        <path class="cls-3" d="M2359.82,1036.17c-20.84,0-37.75,6.2-37.75,13.83s16.91,13.83,37.75,13.83,37.74-6.2,37.74-13.83-16.91-13.83-37.74-13.83h0Z"/>
        <path class="cls-3" d="M2514.29,1037.73c-6.48,0-11.73,5.5-11.73,12.27s5.25,12.27,11.73,12.27,11.72-5.5,11.72-12.27-5.25-12.27-11.72-12.27h0Z"/>
        <path class="cls-3" d="M2459.23,1036.17c-20.83,0-37.74,6.2-37.74,13.83s16.91,13.83,37.74,13.83,37.75-6.2,37.75-13.83-16.92-13.83-37.75-13.83h0Z"/>
        <path class="cls-3" d="M2569.34,1036.17c-20.83,0-37.75,6.2-37.75,13.83s16.92,13.83,37.75,13.83,37.74-6.2,37.74-13.83-16.91-13.83-37.74-13.83h0Z"/>
        <path class="cls-3" d="M2723.81,1037.73c-6.47,0-11.73,5.5-11.73,12.27s5.26,12.27,11.73,12.27,11.73-5.5,11.73-12.27-5.26-12.27-11.73-12.27h0Z"/>
        <path class="cls-3" d="M2668.76,1036.17c-20.84,0-37.75,6.2-37.75,13.83s16.91,13.83,37.75,13.83,37.74-6.2,37.74-13.83-16.91-13.83-37.74-13.83h0Z"/>
        <path class="cls-3" d="M2778.86,1036.17c-20.83,0-37.74,6.2-37.74,13.83s16.91,13.83,37.74,13.83,37.75-6.2,37.75-13.83-16.91-13.83-37.75-13.83h0Z"/>
        <path class="cls-3" d="M2933.33,1037.73c-6.47,0-11.72,5.5-11.72,12.27s5.25,12.27,11.72,12.27,11.73-5.5,11.73-12.27-5.26-12.27-11.73-12.27h0Z"/>
        <path class="cls-3" d="M2878.28,1036.17c-20.83,0-37.75,6.2-37.75,13.83s16.92,13.83,37.75,13.83,37.75-6.2,37.75-13.83-16.92-13.83-37.75-13.83h0Z"/>
        <path class="cls-3" d="M2988.39,1036.17c-20.84,0-37.75,6.2-37.75,13.83s16.91,13.83,37.75,13.83,37.74-6.2,37.74-13.83-16.91-13.83-37.74-13.83h0Z"/>
        <path class="cls-3" d="M3142.86,1037.73c-6.47,0-11.73,5.5-11.73,12.27s5.26,12.27,11.73,12.27,11.72-5.5,11.72-12.27-5.25-12.27-11.72-12.27h0Z"/>
        <path class="cls-3" d="M3087.8,1036.17c-20.83,0-37.74,6.2-37.74,13.83s16.91,13.83,37.74,13.83,37.75-6.2,37.75-13.83-16.91-13.83-37.75-13.83h0Z"/>
        <path class="cls-3" d="M3197.91,1036.17c-20.83,0-37.74,6.2-37.74,13.83s16.91,13.83,37.74,13.83,37.75-6.2,37.75-13.83-16.92-13.83-37.75-13.83h0Z"/>
        <path class="cls-3" d="M3352.38,1037.73c-6.47,0-11.72,5.5-11.72,12.27s5.25,12.27,11.72,12.27,11.73-5.5,11.73-12.27-5.26-12.27-11.73-12.27h0Z"/>
        <path class="cls-3" d="M3297.33,1036.17c-20.83,0-37.75,6.2-37.75,13.83s16.92,13.83,37.75,13.83,37.74-6.2,37.74-13.83-16.91-13.83-37.74-13.83h0Z"/>
        <path class="cls-3" d="M3407.43,1036.17c-20.83,0-37.74,6.2-37.74,13.83s16.91,13.83,37.74,13.83,37.75-6.2,37.75-13.83-16.91-13.83-37.75-13.83h0Z"/>
        <path class="cls-3" d="M3561.91,1037.73c-6.48,0-11.73,5.5-11.73,12.27s5.25,12.27,11.73,12.27,11.72-5.5,11.72-12.27-5.25-12.27-11.72-12.27h0Z"/>
        <path class="cls-3" d="M3506.85,1036.17c-20.83,0-37.74,6.2-37.74,13.83s16.91,13.83,37.74,13.83,37.75-6.2,37.75-13.83-16.92-13.83-37.75-13.83h0Z"/>
        <path class="cls-3" d="M3616.96,1036.17c-20.83,0-37.75,6.2-37.75,13.83s16.92,13.83,37.75,13.83,37.74-6.2,37.74-13.83-16.91-13.83-37.74-13.83h0Z"/>
        <path class="cls-3" d="M3771.43,1037.73c-6.47,0-11.73,5.5-11.73,12.27s5.26,12.27,11.73,12.27,11.72-5.5,11.72-12.27-5.25-12.27-11.72-12.27h0Z"/>
        <path class="cls-3" d="M3716.38,1036.17c-20.84,0-37.75,6.2-37.75,13.83s16.91,13.83,37.75,13.83,37.74-6.2,37.74-13.83-16.91-13.83-37.74-13.83h0Z"/>
        <path class="cls-3" d="M3826.48,1036.17c-20.83,0-37.74,6.2-37.74,13.83s16.91,13.83,37.74,13.83,37.75-6.2,37.75-13.83-16.92-13.83-37.75-13.83h0Z"/>
        <path class="cls-3" d="M3980.95,1037.73c-6.47,0-11.72,5.5-11.72,12.27s5.25,12.27,11.72,12.27,11.73-5.5,11.73-12.27-5.26-12.27-11.73-12.27h0Z"/>
        <path class="cls-3" d="M3925.9,1036.17c-20.83,0-37.75,6.2-37.75,13.83s16.92,13.83,37.75,13.83,37.74-6.2,37.74-13.83-16.91-13.83-37.74-13.83h0Z"/>
        <path class="cls-3" d="M4036.01,1036.17c-20.84,0-37.75,6.2-37.75,13.83s16.91,13.83,37.75,13.83,37.74-6.2,37.74-13.83-16.91-13.83-37.74-13.83h0Z"/>
        <path class="cls-3" d="M4190.48,1037.73c-6.48,0-11.73,5.5-11.73,12.27s5.25,12.27,11.73,12.27,11.72-5.5,11.72-12.27-5.25-12.27-11.72-12.27h0Z"/>
        <path class="cls-3" d="M4135.42,1036.17c-20.83,0-37.74,6.2-37.74,13.83s16.91,13.83,37.74,13.83,37.75-6.2,37.75-13.83-16.92-13.83-37.75-13.83h0Z"/>
        <path class="cls-3" d="M4245.53,1036.17c-20.83,0-37.74,6.2-37.74,13.83s16.91,13.83,37.74,13.83,37.75-6.2,37.75-13.83-16.92-13.83-37.75-13.83h0Z"/>
        <path class="cls-3" d="M4388.27,1050c0,6.77,5.26,12.27,11.73,12.27v-24.54c-6.47,0-11.73,5.5-11.73,12.27h0Z"/>
        <path class="cls-3" d="M4344.95,1036.17c-20.84,0-37.75,6.2-37.75,13.83s16.91,13.83,37.75,13.83,37.74-6.2,37.74-13.83-16.91-13.83-37.74-13.83h0Z"/>
        <path class="cls-3" d="M11.73,50c0-6.77-5.25-12.27-11.73-12.27h0v24.54h0c6.47,0,11.73-5.5,11.73-12.27h0Z"/>
        <path class="cls-3" d="M55.05,36.17c-20.83,0-37.75,6.2-37.75,13.83s16.91,13.83,37.75,13.83,37.75-6.2,37.75-13.83-16.91-13.83-37.75-13.83h0Z"/>
        <path class="cls-3" d="M209.52,37.73c-6.47,0-11.73,5.5-11.73,12.27s5.25,12.27,11.73,12.27,11.73-5.5,11.73-12.27-5.25-12.27-11.73-12.27h0Z"/>
        <path class="cls-3" d="M154.47,36.17c-20.83,0-37.74,6.2-37.74,13.83s16.91,13.83,37.74,13.83,37.74-6.2,37.74-13.83-16.91-13.83-37.74-13.83h0Z"/>
        <path class="cls-3" d="M264.58,36.17c-20.83,0-37.74,6.2-37.74,13.83s16.91,13.83,37.74,13.83,37.74-6.2,37.74-13.83-16.91-13.83-37.74-13.83h0Z"/>
        <path class="cls-3" d="M419.05,37.73c-6.47,0-11.73,5.5-11.73,12.27s5.25,12.27,11.73,12.27,11.73-5.5,11.73-12.27-5.25-12.27-11.73-12.27h0Z"/>
        <path class="cls-3" d="M363.99,36.17c-20.83,0-37.75,6.2-37.75,13.83s16.91,13.83,37.75,13.83,37.74-6.2,37.74-13.83-16.91-13.83-37.74-13.83h0Z"/>
        <path class="cls-3" d="M474.1,36.17c-20.83,0-37.75,6.2-37.75,13.83s16.91,13.83,37.75,13.83,37.75-6.2,37.75-13.83-16.91-13.83-37.75-13.83h0Z"/>
        <path class="cls-3" d="M628.57,37.73c-6.47,0-11.73,5.5-11.73,12.27s5.25,12.27,11.73,12.27,11.72-5.5,11.72-12.27-5.25-12.27-11.72-12.27h0Z"/>
        <path class="cls-3" d="M573.52,36.17c-20.83,0-37.75,6.2-37.75,13.83s16.91,13.83,37.75,13.83,37.74-6.2,37.74-13.83-16.91-13.83-37.74-13.83h0Z"/>
        <path class="cls-3" d="M683.63,36.17c-20.83,0-37.74,6.2-37.74,13.83s16.91,13.83,37.74,13.83,37.75-6.2,37.75-13.83-16.91-13.83-37.75-13.83h0Z"/>
        <path class="cls-3" d="M838.1,37.73c-6.47,0-11.72,5.5-11.72,12.27s5.25,12.27,11.72,12.27,11.73-5.5,11.73-12.27-5.25-12.27-11.73-12.27h0Z"/>
        <path class="cls-3" d="M783.04,36.17c-20.83,0-37.75,6.2-37.75,13.83s16.91,13.83,37.75,13.83,37.74-6.2,37.74-13.83-16.91-13.83-37.74-13.83h0Z"/>
        <path class="cls-3" d="M893.15,36.17c-20.83,0-37.75,6.2-37.75,13.83s16.91,13.83,37.75,13.83,37.75-6.2,37.75-13.83-16.91-13.83-37.75-13.83h0Z"/>
        <path class="cls-3" d="M1047.62,37.73c-6.47,0-11.73,5.5-11.73,12.27s5.26,12.27,11.73,12.27,11.72-5.5,11.72-12.27-5.25-12.27-11.72-12.27h0Z"/>
        <path class="cls-3" d="M992.57,36.17c-20.83,0-37.75,6.2-37.75,13.83s16.91,13.83,37.75,13.83,37.74-6.2,37.74-13.83-16.91-13.83-37.74-13.83h0Z"/>
        <path class="cls-3" d="M1102.67,36.17c-20.83,0-37.74,6.2-37.74,13.83s16.91,13.83,37.74,13.83,37.75-6.2,37.75-13.83-16.91-13.83-37.75-13.83h0Z"/>
        <path class="cls-3" d="M1257.14,37.73c-6.47,0-11.72,5.5-11.72,12.27s5.25,12.27,11.72,12.27,11.73-5.5,11.73-12.27-5.26-12.27-11.73-12.27h0Z"/>
        <path class="cls-3" d="M1202.09,36.17c-20.83,0-37.75,6.2-37.75,13.83s16.92,13.83,37.75,13.83,37.74-6.2,37.74-13.83-16.91-13.83-37.74-13.83h0Z"/>
        <path class="cls-3" d="M1312.2,36.17c-20.84,0-37.75,6.2-37.75,13.83s16.91,13.83,37.75,13.83,37.74-6.2,37.74-13.83-16.91-13.83-37.74-13.83h0Z"/>
        <path class="cls-3" d="M1466.67,37.73c-6.47,0-11.73,5.5-11.73,12.27s5.26,12.27,11.73,12.27,11.72-5.5,11.72-12.27-5.25-12.27-11.72-12.27h0Z"/>
        <path class="cls-3" d="M1411.61,36.17c-20.83,0-37.74,6.2-37.74,13.83s16.91,13.83,37.74,13.83,37.75-6.2,37.75-13.83-16.91-13.83-37.75-13.83h0Z"/>
        <path class="cls-3" d="M1521.72,36.17c-20.83,0-37.74,6.2-37.74,13.83s16.91,13.83,37.74,13.83,37.75-6.2,37.75-13.83-16.92-13.83-37.75-13.83h0Z"/>
        <path class="cls-3" d="M1676.19,37.73c-6.47,0-11.73,5.5-11.73,12.27s5.26,12.27,11.73,12.27,11.73-5.5,11.73-12.27-5.26-12.27-11.73-12.27h0Z"/>
        <path class="cls-3" d="M1621.14,36.17c-20.84,0-37.75,6.2-37.75,13.83s16.91,13.83,37.75,13.83,37.74-6.2,37.74-13.83-16.91-13.83-37.74-13.83h0Z"/>
        <path class="cls-3" d="M1731.24,36.17c-20.83,0-37.74,6.2-37.74,13.83s16.91,13.83,37.74,13.83,37.75-6.2,37.75-13.83-16.91-13.83-37.75-13.83h0Z"/>
        <path class="cls-3" d="M1885.71,37.73c-6.47,0-11.72,5.5-11.72,12.27s5.25,12.27,11.72,12.27,11.73-5.5,11.73-12.27-5.25-12.27-11.73-12.27h0Z"/>
        <path class="cls-3" d="M1830.66,36.17c-20.83,0-37.74,6.2-37.74,13.83s16.91,13.83,37.74,13.83,37.75-6.2,37.75-13.83-16.92-13.83-37.75-13.83h0Z"/>
        <path class="cls-3" d="M1940.77,36.17c-20.83,0-37.75,6.2-37.75,13.83s16.92,13.83,37.75,13.83,37.74-6.2,37.74-13.83-16.91-13.83-37.74-13.83h0Z"/>
        <path class="cls-3" d="M2095.24,37.73c-6.47,0-11.73,5.5-11.73,12.27s5.26,12.27,11.73,12.27,11.72-5.5,11.72-12.27-5.25-12.27-11.72-12.27h0Z"/>
        <path class="cls-3" d="M2040.18,36.17c-20.83,0-37.74,6.2-37.74,13.83s16.91,13.83,37.74,13.83,37.75-6.2,37.75-13.83-16.91-13.83-37.75-13.83h0Z"/>
        <path class="cls-3" d="M2150.29,36.17c-20.83,0-37.74,6.2-37.74,13.83s16.91,13.83,37.74,13.83,37.75-6.2,37.75-13.83-16.92-13.83-37.75-13.83h0Z"/>
        <path class="cls-3" d="M2304.76,37.73c-6.47,0-11.72,5.5-11.72,12.27s5.25,12.27,11.72,12.27,11.73-5.5,11.73-12.27-5.26-12.27-11.73-12.27h0Z"/>
        <path class="cls-3" d="M2249.71,36.17c-20.83,0-37.75,6.2-37.75,13.83s16.92,13.83,37.75,13.83,37.74-6.2,37.74-13.83-16.91-13.83-37.74-13.83h0Z"/>
        <path class="cls-3" d="M2359.82,36.17c-20.84,0-37.75,6.2-37.75,13.83s16.91,13.83,37.75,13.83,37.74-6.2,37.74-13.83-16.91-13.83-37.74-13.83h0Z"/>
        <path class="cls-3" d="M2514.29,37.73c-6.48,0-11.73,5.5-11.73,12.27s5.25,12.27,11.73,12.27,11.72-5.5,11.72-12.27-5.25-12.27-11.72-12.27h0Z"/>
        <path class="cls-3" d="M2459.23,36.17c-20.83,0-37.74,6.2-37.74,13.83s16.91,13.83,37.74,13.83,37.75-6.2,37.75-13.83-16.92-13.83-37.75-13.83h0Z"/>
        <path class="cls-3" d="M2569.34,36.17c-20.83,0-37.75,6.2-37.75,13.83s16.92,13.83,37.75,13.83,37.74-6.2,37.74-13.83-16.91-13.83-37.74-13.83h0Z"/>
        <path class="cls-3" d="M2723.81,37.73c-6.47,0-11.73,5.5-11.73,12.27s5.26,12.27,11.73,12.27,11.73-5.5,11.73-12.27-5.26-12.27-11.73-12.27h0Z"/>
        <path class="cls-3" d="M2668.76,36.17c-20.84,0-37.75,6.2-37.75,13.83s16.91,13.83,37.75,13.83,37.74-6.2,37.74-13.83-16.91-13.83-37.74-13.83h0Z"/>
        <path class="cls-3" d="M2778.86,36.17c-20.83,0-37.74,6.2-37.74,13.83s16.91,13.83,37.74,13.83,37.75-6.2,37.75-13.83-16.91-13.83-37.75-13.83h0Z"/>
        <path class="cls-3" d="M2933.33,37.73c-6.47,0-11.72,5.5-11.72,12.27s5.25,12.27,11.72,12.27,11.73-5.5,11.73-12.27-5.26-12.27-11.73-12.27h0Z"/>
        <path class="cls-3" d="M2878.28,36.17c-20.83,0-37.75,6.2-37.75,13.83s16.92,13.83,37.75,13.83,37.75-6.2,37.75-13.83-16.92-13.83-37.75-13.83h0Z"/>
        <path class="cls-3" d="M2988.39,36.17c-20.84,0-37.75,6.2-37.75,13.83s16.91,13.83,37.75,13.83,37.74-6.2,37.74-13.83-16.91-13.83-37.74-13.83h0Z"/>
        <path class="cls-3" d="M3142.86,37.73c-6.47,0-11.73,5.5-11.73,12.27s5.26,12.27,11.73,12.27,11.72-5.5,11.72-12.27-5.25-12.27-11.72-12.27h0Z"/>
        <path class="cls-3" d="M3087.8,36.17c-20.83,0-37.74,6.2-37.74,13.83s16.91,13.83,37.74,13.83,37.75-6.2,37.75-13.83-16.91-13.83-37.75-13.83h0Z"/>
        <path class="cls-3" d="M3197.91,36.17c-20.83,0-37.74,6.2-37.74,13.83s16.91,13.83,37.74,13.83,37.75-6.2,37.75-13.83-16.92-13.83-37.75-13.83h0Z"/>
        <path class="cls-3" d="M3352.38,37.73c-6.47,0-11.72,5.5-11.72,12.27s5.25,12.27,11.72,12.27,11.73-5.5,11.73-12.27-5.26-12.27-11.73-12.27h0Z"/>
        <path class="cls-3" d="M3297.33,36.17c-20.83,0-37.75,6.2-37.75,13.83s16.92,13.83,37.75,13.83,37.74-6.2,37.74-13.83-16.91-13.83-37.74-13.83h0Z"/>
        <path class="cls-3" d="M3407.43,36.17c-20.83,0-37.74,6.2-37.74,13.83s16.91,13.83,37.74,13.83,37.75-6.2,37.75-13.83-16.91-13.83-37.75-13.83h0Z"/>
        <path class="cls-3" d="M3561.91,37.73c-6.48,0-11.73,5.5-11.73,12.27s5.25,12.27,11.73,12.27,11.72-5.5,11.72-12.27-5.25-12.27-11.72-12.27h0Z"/>
        <path class="cls-3" d="M3506.85,36.17c-20.83,0-37.74,6.2-37.74,13.83s16.91,13.83,37.74,13.83,37.75-6.2,37.75-13.83-16.92-13.83-37.75-13.83h0Z"/>
        <path class="cls-3" d="M3616.96,36.17c-20.83,0-37.75,6.2-37.75,13.83s16.92,13.83,37.75,13.83,37.74-6.2,37.74-13.83-16.91-13.83-37.74-13.83h0Z"/>
        <path class="cls-3" d="M3771.43,37.73c-6.47,0-11.73,5.5-11.73,12.27s5.26,12.27,11.73,12.27,11.72-5.5,11.72-12.27-5.25-12.27-11.72-12.27h0Z"/>
        <path class="cls-3" d="M3716.38,36.17c-20.84,0-37.75,6.2-37.75,13.83s16.91,13.83,37.75,13.83,37.74-6.2,37.74-13.83-16.91-13.83-37.74-13.83h0Z"/>
        <path class="cls-3" d="M3826.48,36.17c-20.83,0-37.74,6.2-37.74,13.83s16.91,13.83,37.74,13.83,37.75-6.2,37.75-13.83-16.92-13.83-37.75-13.83h0Z"/>
        <path class="cls-3" d="M3980.95,37.73c-6.47,0-11.72,5.5-11.72,12.27s5.25,12.27,11.72,12.27,11.73-5.5,11.73-12.27-5.26-12.27-11.73-12.27h0Z"/>
        <path class="cls-3" d="M3925.9,36.17c-20.83,0-37.75,6.2-37.75,13.83s16.92,13.83,37.75,13.83,37.74-6.2,37.74-13.83-16.91-13.83-37.74-13.83h0Z"/>
        <path class="cls-3" d="M4036.01,36.17c-20.84,0-37.75,6.2-37.75,13.83s16.91,13.83,37.75,13.83,37.74-6.2,37.74-13.83-16.91-13.83-37.74-13.83h0Z"/>
        <path class="cls-3" d="M4190.48,37.73c-6.48,0-11.73,5.5-11.73,12.27s5.25,12.27,11.73,12.27,11.72-5.5,11.72-12.27-5.25-12.27-11.72-12.27h0Z"/>
        <path class="cls-3" d="M4135.42,36.17c-20.83,0-37.74,6.2-37.74,13.83s16.91,13.83,37.74,13.83,37.75-6.2,37.75-13.83-16.92-13.83-37.75-13.83h0Z"/>
        <path class="cls-3" d="M4245.53,36.17c-20.83,0-37.74,6.2-37.74,13.83s16.91,13.83,37.74,13.83,37.75-6.2,37.75-13.83-16.92-13.83-37.75-13.83h0Z"/>
        <path class="cls-3" d="M4388.27,50c0,6.77,5.26,12.27,11.73,12.27v-24.54c-6.47,0-11.73,5.5-11.73,12.27h0Z"/>
        <path class="cls-3" d="M4344.95,36.17c-20.84,0-37.75,6.2-37.75,13.83s16.91,13.83,37.75,13.83,37.74-6.2,37.74-13.83-16.91-13.83-37.74-13.83h0Z"/>
      </g>
    </g>
  </g>
</svg>